<svg width="32" height="44" viewBox="0 0 32 44" fill="none" xmlns="http://www.w3.org/2000/svg">
<path d="M15.6197 35.8816C15.9455 35.7727 16.1265 35.4095 16.0179 35.0645C15.9093 34.7376 15.5473 34.556 15.2034 34.665C14.8777 34.7739 14.6967 35.1371 14.8053 35.4821C14.932 35.809 15.2939 35.9906 15.6197 35.8816Z" fill="#F4E649"/>
<path d="M15.6742 37.9155C16 37.8066 16.181 37.4434 16.0724 37.0984C15.9638 36.7715 15.6018 36.59 15.2579 36.6989C14.9321 36.8079 14.7511 37.171 14.8597 37.5161C14.9864 37.8611 15.3484 38.0427 15.6742 37.9155Z" fill="#F4E649"/>
<path d="M18.5333 36.2446C18.4066 35.8633 18.0084 35.6635 17.6283 35.7907C17.2482 35.9178 17.0491 36.3173 17.1758 36.6986C17.3025 37.0799 17.7007 37.2797 18.0808 37.1526C18.4609 37.0255 18.66 36.626 18.5333 36.2446Z" fill="#F4E649"/>
<path d="M19.3845 39.5498C19.7646 39.4227 19.9637 39.0232 19.837 38.6418C19.7103 38.2605 19.3121 38.0608 18.932 38.1879C18.5519 38.315 18.3528 38.7145 18.4795 39.0958C18.6062 39.4771 19.0225 39.6769 19.3845 39.5498Z" fill="#F4E649"/>
<path d="M15.8912 39.2411C15.5654 39.3501 15.3844 39.7133 15.493 40.0583C15.6016 40.3852 15.9636 40.5667 16.3075 40.4578C16.6333 40.3488 16.8143 39.9857 16.7057 39.6406C16.5971 39.3138 16.2351 39.1322 15.8912 39.2411Z" fill="#F4E649"/>
<path d="M20.1623 34.1565C20.5424 33.9568 20.7053 33.4847 20.5062 33.1033C20.3071 32.722 19.8365 32.5586 19.4564 32.7583C19.0763 32.9581 18.9134 33.4302 19.1125 33.8115C19.2935 34.1929 19.7641 34.3563 20.1623 34.1565Z" fill="#F4E649"/>
<path d="M21.3571 36.7168C21.7372 36.5171 21.9001 36.045 21.701 35.6636C21.5019 35.2823 21.0313 35.1189 20.6512 35.3186C20.2711 35.5184 20.1082 35.9905 20.3073 36.3718C20.5064 36.7532 20.977 36.8984 21.3571 36.7168Z" fill="#F4E649"/>
<path d="M22.4975 38.8052C22.8776 38.6055 23.0405 38.1333 22.8414 37.752C22.6423 37.3707 22.1717 37.2072 21.7916 37.407C21.4115 37.6067 21.2486 38.0789 21.4477 38.4602C21.6468 38.8415 22.1174 39.005 22.4975 38.8052Z" fill="#F4E649"/>
<path d="M24.2714 32.6856C24.6515 32.4859 24.8144 32.0319 24.6334 31.6324C24.4343 31.2511 23.9818 31.0877 23.5836 31.2693C23.2035 31.469 23.0407 31.923 23.2216 32.3225C23.4207 32.722 23.8732 32.8854 24.2714 32.6856Z" fill="#F4E649"/>
<path d="M25.194 35.5912C25.5741 35.3914 25.737 34.9374 25.556 34.5379C25.3569 34.1566 24.9044 33.9932 24.5062 34.1748C24.1262 34.3745 23.9633 34.8285 24.1443 35.228C24.3252 35.6093 24.7958 35.7727 25.194 35.5912Z" fill="#F4E649"/>
<path d="M24.9044 36.3174C24.5243 36.5172 24.3615 36.9711 24.5424 37.3706C24.7415 37.752 25.194 37.9154 25.5922 37.7338C25.9723 37.5341 26.1352 37.0801 25.9542 36.6806C25.7732 36.2811 25.3026 36.1177 24.9044 36.3174Z" fill="#F4E649"/>
<path d="M27.3478 32.486C26.9677 32.6858 26.8048 33.1398 26.9858 33.5393C27.1849 33.9206 27.6374 34.084 28.0356 33.9024C28.4157 33.7027 28.5786 33.2487 28.3976 32.8492C28.2166 32.4679 27.746 32.3045 27.3478 32.486Z" fill="#F4E649"/>
<path d="M27.2575 35.1917C26.8774 35.3914 26.7145 35.8454 26.8955 36.2449C27.0946 36.6262 27.5471 36.7897 27.9452 36.6081C28.3253 36.4083 28.4882 35.9544 28.3072 35.5549C28.1081 35.1554 27.6376 34.9919 27.2575 35.1917Z" fill="#F4E649"/>
<path d="M26.787 28.1641C27.1671 27.9644 27.33 27.5104 27.149 27.1109C26.9499 26.7296 26.4975 26.5662 26.0993 26.7478C25.7192 26.9475 25.5563 27.4015 25.7373 27.801C25.9183 28.2005 26.3889 28.3639 26.787 28.1641Z" fill="#F4E649"/>
<path d="M28.1084 30.4522C28.1084 29.9438 27.6921 29.5261 27.1853 29.5261C26.6785 29.5261 26.2622 29.9438 26.2622 30.4522C26.2622 30.9607 26.6785 31.3783 27.1853 31.3783C27.7102 31.3783 28.1084 30.9607 28.1084 30.4522Z" fill="#F4E649"/>
<path d="M31.1133 27.4742C31.1133 26.9658 30.697 26.5481 30.1902 26.5481C30.0816 26.5481 29.973 26.5663 29.8825 26.6026C30.0635 26.4392 30.1721 26.2031 30.1721 25.9307C30.1721 25.4223 29.7558 25.0046 29.249 25.0046C28.7422 25.0046 28.3259 25.4223 28.3259 25.9307C28.3259 26.4392 28.7422 26.8568 29.249 26.8568C29.3576 26.8568 29.4662 26.8387 29.5567 26.8024C29.3757 26.9658 29.2671 27.2019 29.2671 27.4742C29.2671 27.9827 29.6834 28.4003 30.1902 28.4003C30.7151 28.4003 31.1133 28.0008 31.1133 27.4742Z" fill="#F4E649"/>
<path d="M29.6478 29.6336C30.0083 29.2719 30.0083 28.6856 29.6478 28.3239C29.2873 27.9623 28.7029 27.9623 28.3424 28.3239C27.9819 28.6856 27.9819 29.2719 28.3424 29.6336C28.7029 29.9953 29.2873 29.9953 29.6478 29.6336Z" fill="#F4E649"/>
<path d="M30.1538 31.9411C30.1538 31.7777 30.0995 31.6143 30.0271 31.469C30.1357 31.5053 30.2443 31.5416 30.371 31.5416C30.8778 31.5416 31.294 31.124 31.294 30.6156C31.294 30.1071 30.8778 29.6895 30.371 29.6895C29.8642 29.6895 29.4479 30.1071 29.4479 30.6156C29.4479 30.779 29.5022 30.9424 29.5746 31.0877C29.466 31.0514 29.3574 31.015 29.2307 31.015C28.7239 31.015 28.3076 31.4327 28.3076 31.9411C28.3076 32.4496 28.7239 32.8672 29.2307 32.8672C29.7375 32.8672 30.1538 32.4496 30.1538 31.9411Z" fill="#F4E649"/>
<path d="M31.4026 33.4483C31.4026 32.9399 30.9863 32.5222 30.4795 32.5222C29.9727 32.5222 29.5564 32.9399 29.5564 33.4483C29.5564 33.7389 29.7012 33.9931 29.9003 34.1565C29.3936 34.1747 28.9954 34.5742 28.9954 35.0826C28.9954 35.5911 29.4117 36.0087 29.9184 36.0087C30.4252 36.0087 30.8415 35.5911 30.8415 35.0826C30.8415 34.7921 30.6967 34.5378 30.4976 34.3744C30.9863 34.3563 31.4026 33.9568 31.4026 33.4483Z" fill="#F4E649"/>
<path d="M28.1084 24.5687C28.1084 24.0602 27.6921 23.6426 27.1853 23.6426C26.6785 23.6426 26.2622 24.0602 26.2622 24.5687C26.2622 25.0771 26.6785 25.4948 27.1853 25.4948C27.7102 25.4948 28.1084 25.0771 28.1084 24.5687Z" fill="#F4E649"/>
<path d="M24.0361 23.9877C24.5459 23.9877 24.9592 23.5731 24.9592 23.0616C24.9592 22.5501 24.5459 22.1355 24.0361 22.1355C23.5263 22.1355 23.113 22.5501 23.113 23.0616C23.113 23.5731 23.5263 23.9877 24.0361 23.9877Z" fill="#F4E649"/>
<path d="M20.6872 21.627C20.6872 21.1549 20.3071 20.7554 19.8366 20.7554C19.366 20.7554 18.9678 21.1367 18.9678 21.627C18.9678 22.0991 19.3479 22.4986 19.8366 22.4986C20.3071 22.4805 20.6872 22.0991 20.6872 21.627Z" fill="#F4E649"/>
<path d="M19.6016 24.5142C19.6016 24.0421 19.2215 23.6426 18.7328 23.6426C18.2622 23.6426 17.864 24.0239 17.864 24.5142C17.864 24.9863 18.2441 25.3858 18.7328 25.3858C19.2215 25.3858 19.6016 25.0045 19.6016 24.5142Z" fill="#F4E649"/>
<path d="M17.6097 28.3795C18.0879 28.3398 18.4435 27.9187 18.4039 27.439C18.3643 26.9592 17.9446 26.6025 17.4664 26.6422C16.9882 26.6819 16.6327 27.103 16.6722 27.5828C16.7118 28.0625 17.1315 28.4192 17.6097 28.3795Z" fill="#F4E649"/>
<path d="M16.4345 31.3238C16.9143 31.3238 17.3032 30.9336 17.3032 30.4522C17.3032 29.9708 16.9143 29.5806 16.4345 29.5806C15.9546 29.5806 15.5657 29.9708 15.5657 30.4522C15.5657 30.9336 15.9546 31.3238 16.4345 31.3238Z" fill="#F4E649"/>
<path d="M23.8371 26.0215C23.8371 25.5494 23.457 25.1499 22.9865 25.1499C22.5159 25.1499 22.1177 25.5312 22.1177 26.0215C22.1177 26.4937 22.4978 26.8932 22.9865 26.8932C23.4389 26.875 23.8371 26.4937 23.8371 26.0215Z" fill="#F4E649"/>
<path d="M22.9135 28.9087C22.9135 28.4366 22.5335 28.0371 22.0629 28.0371C21.5923 28.0371 21.1941 28.4184 21.1941 28.9087C21.1941 29.3809 21.5742 29.7804 22.0629 29.7804C22.5154 29.7804 22.9135 29.399 22.9135 28.9087Z" fill="#F4E649"/>
<path d="M14.0991 22.3533C13.7371 22.3533 13.4475 22.6438 13.4475 23.007C13.4475 23.3702 13.7371 23.6607 14.0991 23.6607C14.4611 23.6607 14.7507 23.3702 14.7507 23.007C14.7507 22.6438 14.4611 22.3533 14.0991 22.3533Z" fill="#F4E649"/>
<path d="M9.61047 20.9189C9.28468 20.9189 9.01318 21.1913 9.01318 21.5182C9.01318 21.845 9.28468 22.1174 9.61047 22.1174C9.93626 22.1174 10.2078 21.845 10.2078 21.5182C10.2078 21.1913 9.93626 20.9189 9.61047 20.9189Z" fill="#F4E649"/>
<path d="M5.14014 20.1197C5.14014 20.4466 5.41163 20.719 5.73742 20.719C6.06321 20.719 6.3347 20.4466 6.3347 20.1197C6.3347 19.7929 6.06321 19.5205 5.73742 19.5205C5.41163 19.5205 5.14014 19.7929 5.14014 20.1197Z" fill="#F4E649"/>
<path d="M4.8507 22.426C4.52491 22.426 4.25342 22.6984 4.25342 23.0253C4.25342 23.3521 4.52491 23.6245 4.8507 23.6245C5.17649 23.6245 5.44799 23.3521 5.44799 23.0253C5.44799 22.6802 5.17649 22.426 4.8507 22.426Z" fill="#F4E649"/>
<path d="M4.68724 25.9125C4.68724 25.5856 4.41575 25.3132 4.08996 25.3132C3.76417 25.3132 3.49268 25.5856 3.49268 25.9125C3.49268 26.2393 3.76417 26.5117 4.08996 26.5117C4.43385 26.5117 4.68724 26.2393 4.68724 25.9125Z" fill="#F4E649"/>
<path d="M6.87765 16.6514C6.60616 16.5243 6.28037 16.6332 6.15367 16.8875C6.02697 17.1599 6.13557 17.4867 6.38897 17.6138C6.66046 17.7409 6.98625 17.632 7.11295 17.3778C7.25774 17.1054 7.14915 16.7785 6.87765 16.6514Z" fill="#F4E649"/>
<path d="M3.819 15.8707C3.9457 15.5983 3.8371 15.2714 3.58371 15.1443C3.31221 15.0172 2.98642 15.1262 2.85973 15.3804C2.73303 15.6528 2.84163 15.9796 3.09502 16.1067C3.36651 16.252 3.6923 16.1431 3.819 15.8707Z" fill="#F4E649"/>
<path d="M2.82297 19.6477C2.55147 19.5206 2.22568 19.6296 2.09898 19.8838C1.97229 20.1562 2.08088 20.483 2.33428 20.6102C2.58767 20.7373 2.93156 20.6283 3.05826 20.3741C3.20306 20.1017 3.09446 19.7749 2.82297 19.6477Z" fill="#F4E649"/>
<path d="M0.795866 22.553C0.524373 22.4259 0.198581 22.5349 0.0718843 22.7891C-0.0548125 23.0615 0.0537848 23.3883 0.307178 23.5154C0.578672 23.6425 0.904463 23.5336 1.03116 23.2794C1.17596 23.007 1.06736 22.6801 0.795866 22.553Z" fill="#F4E649"/>
<path d="M0.470051 20.5921C0.741544 20.7192 1.06734 20.6102 1.19403 20.356C1.32073 20.0836 1.21213 19.7568 0.958739 19.6297C0.687246 19.5026 0.361454 19.6115 0.234757 19.8657C0.0899604 20.1381 0.198558 20.4468 0.470051 20.5921Z" fill="#F4E649"/>
<path d="M2.6965 21.7542C2.42501 21.6271 2.09922 21.736 1.97252 21.9903C1.84582 22.2626 1.95442 22.5895 2.20781 22.7166C2.46121 22.8437 2.8051 22.7348 2.9318 22.4805C3.07659 22.2082 2.96799 21.8813 2.6965 21.7542Z" fill="#F4E649"/>
<path d="M1.04977 21.2456C0.778279 21.1185 0.452487 21.2275 0.325791 21.4817C0.199094 21.7541 0.307691 22.0809 0.561085 22.2081C0.814478 22.3352 1.15837 22.2262 1.28507 21.972C1.42986 21.6996 1.32127 21.3728 1.04977 21.2456Z" fill="#F4E649"/>
<path d="M2.24381 24.7503C2.3705 24.4779 2.26191 24.1511 2.00851 24.024C1.73702 23.8969 1.41123 24.0058 1.28453 24.26C1.15783 24.5324 1.26643 24.8593 1.51983 24.9864C1.77322 25.1317 2.09901 25.0227 2.24381 24.7503Z" fill="#F4E649"/>
<path d="M0.488361 14.6177C0.759854 14.7448 1.08565 14.6359 1.21234 14.3817C1.33904 14.1093 1.23044 13.7824 0.977049 13.6553C0.705556 13.5282 0.379764 13.6372 0.253067 13.8914C0.108271 14.1638 0.216868 14.4906 0.488361 14.6177Z" fill="#F4E649"/>
<path d="M1.12179 16.5606C0.850301 16.4335 0.524509 16.5424 0.397812 16.7966C0.271115 17.069 0.379712 17.3959 0.633106 17.523C0.904599 17.6501 1.23039 17.5412 1.35709 17.2869C1.50188 17.0146 1.39329 16.6877 1.12179 16.5606Z" fill="#F4E649"/>
<path d="M2.28011 18.9395C2.5516 19.0666 2.87739 18.9577 3.00409 18.7034C3.13079 18.4311 3.02219 18.1042 2.7688 17.9771C2.4973 17.85 2.17151 17.9589 2.04482 18.2132C1.90002 18.4674 2.00862 18.7942 2.28011 18.9395Z" fill="#F4E649"/>
<path d="M0.379475 16.0704C0.650968 16.1975 0.97676 16.0885 1.10346 15.8343C1.23015 15.5619 1.12156 15.2351 0.868162 15.1079C0.596669 14.9808 0.270877 15.0898 0.144181 15.344C-0.000615783 15.5982 0.107981 15.9251 0.379475 16.0704Z" fill="#F4E649"/>
<path d="M3.49327 12.4386C3.36657 12.7109 3.47517 13.0378 3.72857 13.1649C4.00006 13.292 4.32585 13.1831 4.45255 12.9288C4.57924 12.6565 4.47065 12.3296 4.21725 12.2025C3.94576 12.0572 3.63807 12.1662 3.49327 12.4386Z" fill="#F4E649"/>
<path d="M0.343311 19.0667C0.614804 19.1938 0.940596 19.0849 1.06729 18.8306C1.19399 18.5583 1.08539 18.2314 0.831999 18.1043C0.560506 17.9772 0.234714 18.0861 0.108017 18.3403C-0.0186797 18.6127 0.0899176 18.9396 0.343311 19.0667Z" fill="#F4E649"/>
<path d="M0.307453 13.1832C0.578946 13.3103 0.904738 13.2013 1.03143 12.9471C1.15813 12.6747 1.04953 12.3479 0.796141 12.2207C0.524648 12.0936 0.198856 12.2026 0.0721591 12.4568C-0.0726372 12.7292 0.03596 13.056 0.307453 13.1832Z" fill="#F4E649"/>
<path d="M1.01302 11.6758C1.28451 11.8029 1.6103 11.694 1.737 11.4398C1.8637 11.1674 1.7551 10.8405 1.50171 10.7134C1.23021 10.5863 0.904422 10.6953 0.777726 10.9495C0.632929 11.2037 0.741526 11.5306 1.01302 11.6758Z" fill="#F4E649"/>
<path d="M3.07674 10.2232C3.34823 10.3503 3.67402 10.2414 3.80072 9.98713C3.92742 9.71475 3.81882 9.38789 3.56543 9.26078C3.29393 9.13367 2.96814 9.24262 2.84145 9.49684C2.69665 9.75107 2.80525 10.0779 3.07674 10.2232Z" fill="#F4E649"/>
<path d="M6.37069 8.73443C6.64218 8.86154 6.96797 8.75258 7.09467 8.49836C7.22137 8.22598 7.11277 7.89912 6.85937 7.77201C6.58788 7.6449 6.26209 7.75385 6.13539 8.00807C5.9906 8.28046 6.09919 8.60731 6.37069 8.73443Z" fill="#F4E649"/>
<path d="M7.02284 11.4401C7.13143 11.7124 7.43913 11.8577 7.71062 11.7488C7.98211 11.6398 8.12691 11.3311 8.01831 11.0587C7.90971 10.7863 7.60202 10.6411 7.33053 10.7319C7.05904 10.8408 6.91424 11.1677 7.02284 11.4401Z" fill="#F4E649"/>
<path d="M8.07191 14.2726C8.18051 14.545 8.4882 14.6902 8.75969 14.5813C9.03118 14.4723 9.17598 14.1636 9.06738 13.8912C8.95878 13.6189 8.65109 13.4736 8.3796 13.5644C8.10811 13.6915 7.96331 14.0002 8.07191 14.2726Z" fill="#F4E649"/>
<path d="M9.10414 17.2689C9.21273 17.5413 9.52043 17.6866 9.79192 17.5776C10.0634 17.4687 10.2082 17.16 10.0996 16.8876C9.99102 16.6152 9.68332 16.4699 9.41183 16.5607C9.14034 16.6878 8.99554 16.9965 9.10414 17.2689Z" fill="#F4E649"/>
<path d="M4.45204 15.9068C4.56063 16.1792 4.86833 16.3245 5.13982 16.2155C5.41131 16.1066 5.55611 15.7979 5.44751 15.5255C5.33892 15.2531 5.03122 15.1079 4.75973 15.1987C4.48824 15.3076 4.34344 15.6163 4.45204 15.9068Z" fill="#F4E649"/>
<path d="M10.4249 7.26348C10.6964 7.39059 11.0222 7.28163 11.1489 7.02741C11.2756 6.75503 11.167 6.42817 10.9136 6.30106C10.6421 6.17395 10.3163 6.2829 10.1896 6.53713C10.0448 6.80951 10.1534 7.13636 10.4249 7.26348Z" fill="#F4E649"/>
<path d="M11.6019 10.2232C11.8734 10.3503 12.1991 10.2414 12.3258 9.98713C12.4525 9.71475 12.3439 9.38789 12.0905 9.26078C11.8191 9.13367 11.4933 9.24262 11.3666 9.49684C11.2399 9.75107 11.3485 10.0779 11.6019 10.2232Z" fill="#F4E649"/>
<path d="M10.8777 18.1406C10.5881 18.0499 10.2804 18.1951 10.1899 18.4857C10.0994 18.7762 10.2442 19.0849 10.5338 19.1757C10.8234 19.2665 11.131 19.1212 11.2215 18.8307C11.312 18.5401 11.1491 18.2314 10.8777 18.1406Z" fill="#F4E649"/>
<path d="M8.37977 25.0773C8.66936 25.1681 8.97706 25.0228 9.06755 24.7323C9.15805 24.4417 9.01326 24.133 8.72366 24.0423C8.43407 23.9515 8.12638 24.0967 8.03588 24.3873C7.94538 24.6778 8.10828 24.9865 8.37977 25.0773Z" fill="#F4E649"/>
<path d="M7.74631 26.9475C7.45672 26.8567 7.14902 27.002 7.05853 27.2925C6.96803 27.5831 7.11282 27.8918 7.40242 27.9826C7.69201 28.0734 7.99971 27.9281 8.0902 27.6376C8.1807 27.347 8.0178 27.0383 7.74631 26.9475Z" fill="#F4E649"/>
<path d="M12.3258 29.1627C12.4163 28.8722 12.2715 28.5635 11.9819 28.4727C11.6923 28.3819 11.3846 28.5272 11.2941 28.8177C11.2036 29.1082 11.3484 29.4169 11.638 29.5077C11.9276 29.5985 12.2172 29.4351 12.3258 29.1627Z" fill="#F4E649"/>
<path d="M13.1218 25.4949C12.8322 25.4041 12.5245 25.5494 12.434 25.8399C12.3435 26.1304 12.4883 26.4391 12.7779 26.5299C13.0675 26.6207 13.3752 26.4755 13.4657 26.1849C13.5743 25.8944 13.4114 25.5857 13.1218 25.4949Z" fill="#F4E649"/>
<path d="M12.8505 36.7169C12.941 36.4264 12.7962 36.1177 12.5066 36.0269C12.217 35.9361 11.9093 36.0814 11.8188 36.3719C11.7283 36.6624 11.8731 36.9711 12.1627 37.0619C12.4523 37.1527 12.76 36.9893 12.8505 36.7169Z" fill="#F4E649"/>
<path d="M13.3575 38.9325C13.448 38.6419 13.3032 38.3332 13.0136 38.2425C12.724 38.1517 12.4164 38.2969 12.3259 38.5875C12.2354 38.878 12.3802 39.1867 12.6697 39.2775C12.9593 39.3865 13.267 39.223 13.3575 38.9325Z" fill="#F4E649"/>
<path d="M12.905 40.4578C12.8145 40.7484 12.9593 41.0571 13.2489 41.1479C13.5384 41.2387 13.8461 41.0934 13.9366 40.8029C14.0271 40.5123 13.8823 40.2036 13.5927 40.1128C13.3032 40.0039 12.9955 40.1673 12.905 40.4578Z" fill="#F4E649"/>
<path d="M9.42927 39.9311C9.71886 40.0219 10.0266 39.8766 10.1171 39.586C10.2076 39.2955 10.0628 38.9868 9.77316 38.896C9.48357 38.8052 9.17588 38.9505 9.08538 39.241C8.99488 39.5134 9.13968 39.8221 9.42927 39.9311Z" fill="#F4E649"/>
<path d="M10.6606 41.0025C10.371 40.9117 10.0633 41.0569 9.97283 41.3475C9.88233 41.638 10.0271 41.9467 10.3167 42.0375C10.6063 42.1283 10.914 41.983 11.0045 41.6925C11.095 41.402 10.9502 41.0933 10.6606 41.0025Z" fill="#F4E649"/>
<path d="M7.74631 41.9466C7.45672 41.8558 7.14902 42.001 7.05853 42.2916C6.96803 42.5821 7.11282 42.8908 7.40242 42.9816C7.69201 43.0724 7.99971 42.9271 8.0902 42.6366C8.1807 42.346 8.0178 42.0373 7.74631 41.9466Z" fill="#F4E649"/>
<path d="M15.059 20.6283C15.3486 20.7191 15.6563 20.5739 15.7468 20.2833C15.8372 19.9928 15.6925 19.6841 15.4029 19.5933C15.1133 19.5025 14.8056 19.6478 14.7151 19.9383C14.6246 20.2288 14.7875 20.5375 15.059 20.6283Z" fill="#F4E649"/>
<path d="M12.6874 13.1651C12.9589 13.2922 13.2847 13.1832 13.4114 12.929C13.5381 12.6566 13.4295 12.3298 13.1761 12.2027C12.9046 12.0756 12.5788 12.1845 12.4521 12.4387C12.3254 12.693 12.4159 13.038 12.6874 13.1651Z" fill="#F4E649"/>
<path d="M13.81 16.2156C14.0815 16.3427 14.4073 16.2338 14.534 15.9796C14.6607 15.7072 14.5521 15.3803 14.2987 15.2532C14.0272 15.1261 13.7014 15.2351 13.5747 15.4893C13.4299 15.7435 13.5566 16.0704 13.81 16.2156Z" fill="#F4E649"/>
<path d="M15.0584 5.73809C15.3299 5.8652 15.6557 5.75625 15.7824 5.50202C15.9091 5.22964 15.8005 4.90278 15.5471 4.77567C15.2756 4.64856 14.9498 4.75751 14.8231 5.01174C14.6964 5.28412 14.805 5.61098 15.0584 5.73809Z" fill="#F4E649"/>
<path d="M19.7281 4.59404C19.9996 4.72116 20.3254 4.6122 20.4521 4.35798C20.5788 4.0856 20.4702 3.75874 20.2168 3.63163C19.9453 3.50452 19.6195 3.61347 19.4928 3.86769C19.3661 4.14007 19.4747 4.46693 19.7281 4.59404Z" fill="#F4E649"/>
<path d="M23.7286 3.5772C24.0001 3.70431 24.3259 3.59536 24.4525 3.34113C24.5792 3.06875 24.4706 2.74189 24.2173 2.61478C23.9458 2.48767 23.62 2.59662 23.4933 2.85085C23.3666 3.12323 23.4752 3.45009 23.7286 3.5772Z" fill="#F4E649"/>
<path d="M31.0948 1.03496C31.3663 1.16207 31.6921 1.05312 31.8188 0.798898C31.9455 0.526516 31.8369 0.199658 31.5835 0.0725463C31.312 -0.0545652 30.9862 0.0543875 30.8595 0.308611C30.7328 0.562833 30.8414 0.889692 31.0948 1.03496Z" fill="#F4E649"/>
<path d="M30.9317 2.8145C31.2032 2.94161 31.529 2.83266 31.6557 2.57844C31.7824 2.30606 31.6738 1.9792 31.4204 1.85209C31.1489 1.72498 30.8231 1.83393 30.6964 2.08815C30.5516 2.36053 30.6602 2.68739 30.9317 2.8145Z" fill="#F4E649"/>
<path d="M16.181 8.80698C16.5068 8.97041 16.905 8.84329 17.0679 8.49828C17.2308 8.17142 17.1041 7.77193 16.7602 7.6085C16.4344 7.44507 16.0362 7.57218 15.8733 7.9172C15.7285 8.24405 15.8552 8.64355 16.181 8.80698Z" fill="#F4E649"/>
<path d="M20.2714 6.42817C20.1085 6.75502 20.2352 7.15452 20.579 7.31795C20.9048 7.48137 21.303 7.35426 21.4659 7.00925C21.6288 6.68239 21.5021 6.2829 21.1582 6.11947C20.8324 5.95604 20.4342 6.10131 20.2714 6.42817Z" fill="#F4E649"/>
<path d="M24.0179 4.66679C23.8007 5.12076 23.9817 5.66552 24.4342 5.90159C24.8867 6.11949 25.4296 5.93791 25.6649 5.48394C25.8821 5.02997 25.7011 4.4852 25.2486 4.24914C24.7962 4.01307 24.2532 4.19466 24.0179 4.66679Z" fill="#F4E649"/>
<path d="M28.615 6.37351C29.0675 6.59141 29.6105 6.40982 29.8458 5.95585C30.063 5.50188 29.882 4.95712 29.4295 4.72106C28.977 4.50315 28.434 4.68474 28.1988 5.13871C27.9635 5.59268 28.1445 6.1556 28.615 6.37351Z" fill="#F4E649"/>
<path d="M27.6014 4.01305C27.1489 3.79514 26.606 3.97673 26.3707 4.4307C26.1535 4.88467 26.3345 5.42943 26.787 5.6655C27.2394 5.8834 27.7824 5.70182 28.0177 5.24785C28.2349 4.79388 28.0539 4.23095 27.6014 4.01305Z" fill="#F4E649"/>
<path d="M28.9046 2.12448C29.3571 2.34239 29.9001 2.1608 30.1354 1.70683C30.3526 1.25286 30.1716 0.708097 29.7191 0.472033C29.2666 0.254127 28.7236 0.435715 28.4883 0.889685C28.2711 1.36181 28.4521 1.90658 28.9046 2.12448Z" fill="#F4E649"/>
<path d="M26.5699 3.52268C27.0224 3.74058 27.5654 3.55899 27.8007 3.10502C28.0179 2.65105 27.8369 2.10629 27.3844 1.87023C26.9319 1.65232 26.3889 1.83391 26.1536 2.28788C25.9364 2.76001 26.1174 3.30477 26.5699 3.52268Z" fill="#F4E649"/>
<path d="M29.8456 2.57848C29.3931 2.36057 28.8501 2.54216 28.6148 2.99613C28.3976 3.4501 28.5786 3.99486 29.0311 4.23093C29.4836 4.44883 30.0266 4.26725 30.2619 3.81328C30.4791 3.35931 30.2981 2.81454 29.8456 2.57848Z" fill="#F4E649"/>
<path d="M30.6786 5.90158C31.131 6.11949 31.674 5.9379 31.9093 5.48393C32.1265 5.02996 31.9455 4.4852 31.493 4.24913C31.0405 4.03123 30.4976 4.21281 30.2623 4.66679C30.0451 5.13891 30.2261 5.68368 30.6786 5.90158Z" fill="#F4E649"/>
<path d="M28.4345 6.71864C27.9458 6.57337 27.439 6.82759 27.2942 7.31788C27.1494 7.80816 27.4028 8.31661 27.8915 8.46188C28.3802 8.60715 28.8869 8.35293 29.0498 7.86264C29.1946 7.39051 28.9231 6.86391 28.4345 6.71864Z" fill="#F4E649"/>
<path d="M31.5293 8.17124C31.6741 7.68095 31.4207 7.1725 30.9321 7.02723C30.4434 6.88196 29.9366 7.13619 29.7737 7.62647C29.6289 8.11676 29.8823 8.62521 30.371 8.78863C30.8778 8.91575 31.3845 8.64336 31.5293 8.17124Z" fill="#F4E649"/>
<path d="M27.9814 9.67862C27.8367 10.1689 28.09 10.6774 28.5787 10.8226C29.0674 10.9679 29.5742 10.7137 29.7371 10.2234C29.8819 9.73309 29.6285 9.22465 29.1398 9.06122C28.633 8.93411 28.1262 9.20649 27.9814 9.67862Z" fill="#F4E649"/>
<path d="M16.9772 10.9496C16.8143 11.2764 16.941 11.6759 17.2849 11.8393C17.6106 12.0028 18.0088 11.8757 18.1717 11.5306C18.3346 11.2038 18.2079 10.8043 17.864 10.6409C17.5201 10.4956 17.1401 10.6227 16.9772 10.9496Z" fill="#F4E649"/>
<path d="M21.3212 9.38804C21.1583 9.7149 21.285 10.1144 21.6289 10.2778C21.9546 10.4412 22.3528 10.3141 22.5157 9.96912C22.6786 9.64226 22.5519 9.24277 22.208 9.07934C21.8822 8.93407 21.4841 9.06118 21.3212 9.38804Z" fill="#F4E649"/>
<path d="M25.3032 9.06131C25.7376 9.27921 26.2625 9.09763 26.4797 8.66182C26.6969 8.226 26.5159 7.6994 26.0815 7.48149C25.6471 7.26359 25.1222 7.44518 24.905 7.88099C24.7059 8.33496 24.8869 8.86156 25.3032 9.06131Z" fill="#F4E649"/>
<path d="M26.0629 11.9847C26.4611 12.1845 26.9498 12.021 27.1489 11.6216C27.348 11.2221 27.1851 10.7318 26.7869 10.532C26.3887 10.3323 25.9 10.4957 25.7009 10.8952C25.5018 11.2947 25.6647 11.785 26.0629 11.9847Z" fill="#F4E649"/>
<path d="M18.4066 14.6903C18.7324 14.8537 19.1306 14.7266 19.2935 14.3816C19.4564 14.0547 19.3297 13.6552 18.9858 13.4918C18.66 13.3284 18.2618 13.4555 18.0989 13.8005C17.9541 14.1274 18.0808 14.5268 18.4066 14.6903Z" fill="#F4E649"/>
<path d="M22.4071 12.5295C22.2442 12.8563 22.3709 13.2558 22.7148 13.4193C23.0406 13.5827 23.4388 13.4556 23.6017 13.1106C23.7646 12.7837 23.6379 12.3842 23.294 12.2208C22.9682 12.0574 22.57 12.2026 22.4071 12.5295Z" fill="#F4E649"/>
</svg>
