<svg width="73" height="299" viewBox="0 0 73 299" fill="none" xmlns="http://www.w3.org/2000/svg">
<g clipPath="url(#clip0)">
<mask id="mask0" mask-type="alpha" maskUnits="userSpaceOnUse" x="0" y="0" width="73" height="299">
<path d="M0.666016 0.591797H72.569V298.775H0.666016V0.591797Z" fill="white"/>
</mask>
<g mask="url(#mask0)">
<path fill-rule="evenodd" clip-rule="evenodd" d="M33.7314 31.3862C35.0266 36.4983 38.9923 38.1919 43.4393 39.4122C46.0175 40.1204 47.676 39.2768 47.8823 36.6887C48.4744 29.2413 49.6774 21.7128 49.12 14.331C48.252 2.84422 34.3705 -2.8457 24.7476 3.77282C16.6496 9.342 15.0681 20.9722 21.3272 28.5088C22.1588 29.5111 23.3392 30.8352 23.2372 31.9023C22.6119 38.4195 23.5495 45.4554 18.9253 50.937C12.7843 58.2176 13.2567 65.9875 16.4272 74.1529C16.8721 75.2986 17.368 76.4241 17.8413 77.5586L17.1326 77.8568C16.3034 76.2548 15.4734 74.6528 14.5341 72.8394C8.60262 83.6415 5.78492 95.3389 3.65647 106.924C2.23022 114.687 4.1904 123.049 4.4064 131.149C4.54959 136.53 5.45808 142.285 3.93152 147.224C1.70842 154.415 1.93008 161.527 1.75186 168.741C1.73997 169.253 2.1833 169.775 2.41467 170.292C2.71723 170.284 3.01898 170.277 3.32074 170.269C3.55292 167.125 3.7851 163.98 4.01728 160.835C4.15966 160.846 4.30285 160.856 4.44523 160.867C4.79552 165.468 5.14662 170.069 5.49773 174.67C6.01548 174.644 6.53404 174.618 7.0526 174.592V162.171C8.89143 166.813 7.15292 171.877 9.36065 176.292C9.84604 176.278 10.3314 176.264 10.8168 176.251V161.337C11.1008 161.365 11.3855 161.392 11.6695 161.42C11.9324 165.79 12.1945 170.16 12.4566 174.53C13.1119 174.522 13.7664 174.515 14.4209 174.507C15.3941 167.853 13.7389 161.023 14.5074 153.52C15.8657 157.511 16.9441 160.679 18.0217 163.846C18.3671 163.746 18.7126 163.646 19.058 163.546C19.8241 159.549 19.3784 155.493 17.2685 152.053C13.2219 145.456 14.3893 138.673 15.3779 131.679C16.3722 124.647 17.0452 117.551 17.4263 110.459C17.5306 108.527 16.0744 106.511 15.3561 104.588C21.0983 103.32 30.5553 88.6985 29.1412 82.1124C27.8873 82.8287 26.6326 83.5467 25.3624 84.2727C28.7513 80.3298 32.0131 76.536 35.275 72.7413C34.504 74.7023 33.4167 76.54 32.3416 78.3843C31.8578 79.2156 31.0059 80.0527 30.9882 80.9002C30.8401 87.8032 27.4003 93.2897 23.7704 98.7697C23.0706 99.8272 22.7106 101.506 22.9646 102.739C24.6489 110.916 28.9252 118.564 27.3024 127.72C34.5615 124.535 40.9962 124.231 46.8775 129.258C50.8553 132.658 50.903 137.06 50.0123 141.677C49.7171 140.902 49.5981 140.088 49.5803 139.272C49.4396 132.692 46.7626 128.872 41.0075 127.069C35.3615 125.301 27.7797 127.197 24.9693 131.668C20.045 139.503 18.8153 148.305 23.6854 156.144C26.6859 160.973 28.1389 165.343 27.6478 170.71C27.5928 171.313 27.7166 171.938 27.7991 172.547C29.0005 181.445 30.2156 190.341 31.4153 199.239C32.378 206.378 32.3343 213.136 28.9883 220.056C24.0098 230.352 23.4824 241.289 27.2215 252.377C29.9939 260.598 31.0731 269.138 30.5408 277.855C30.3782 280.503 30.5149 283.169 30.5149 285.836C27.211 288.002 25.7977 291.007 27.0686 293.795C28.6372 297.236 31.7195 296.649 34.7119 296.488C38.2464 296.299 41.806 296.25 45.3364 296.45C49.3797 296.679 53.406 297.598 57.4348 297.567C60.8026 297.538 64.2764 296.921 67.4824 295.882C69.1918 295.329 70.4352 293.329 71.8882 291.982C71.6398 291.577 71.3923 291.171 71.1439 290.766C68.9645 290.766 66.7398 291.038 64.617 290.69C62.4797 290.339 60.4006 289.477 58.3732 288.65C55.3064 287.397 52.3163 285.958 49.2762 284.638C43.6747 282.208 42.924 281.105 43.038 274.835C43.0939 271.76 43.157 268.675 43.462 265.619C44.7078 253.147 46.147 240.693 47.3022 228.214C47.7148 223.759 46.6008 219.117 49.5472 215.068C50.0746 214.343 50.4241 213.023 50.1361 212.245C48.6265 208.154 51.0163 204.798 51.8455 201.124C52.8988 196.457 54.2045 191.702 54.2458 186.976C54.4148 167.796 54.3882 148.605 53.8744 129.434C53.7288 123.999 50.7153 118.614 50.7275 113.209C50.7493 103.554 51.132 93.707 53.0776 84.2954C55.7359 71.4368 53.389 63.5639 42.3407 56.49C37.8112 53.5908 34.7499 46.4399 35.8033 40.8269C36.4432 43.3486 37.0256 45.6417 37.7424 48.4681C39.4599 45.487 40.8441 43.0836 42.3326 40.5004C38.2132 38.5848 33.5988 37.1757 33.7314 31.3862ZM21.6128 102.455C18.0751 103.866 18.2797 106.186 18.2846 109.313C18.2959 116.518 17.6382 123.781 16.542 130.911C15.424 138.179 14.7218 145.005 18.2919 152.029C20.1671 155.718 20.0433 160.428 20.8208 164.678C20.3483 164.922 19.8743 165.167 19.401 165.412C18.2069 164.677 17.0121 163.942 15.6926 163.129C15.6926 165.941 15.75 168.946 15.678 171.948C15.5891 175.645 11.3839 177.797 8.01449 176.24C2.59912 173.737 0.343658 169.802 0.702849 163.786C1.06204 157.768 1.4455 151.933 3.19615 146.011C4.49377 141.622 3.55292 136.535 3.4251 131.762C3.18402 122.806 1.42932 113.627 2.85152 104.959C4.52047 94.7798 8.99498 85.0757 12.0433 75.1017C12.8684 72.401 13.4274 69.4378 13.2527 66.6495C12.8903 60.8875 13.6143 55.6497 17.5444 51.1234C22.2988 45.649 21.4955 38.6942 22.2025 32.1884C22.3061 31.2427 21.1978 30.0621 20.4584 29.1449C15.8212 23.3942 15.1344 17.0658 18.0379 10.4497C20.9276 3.86438 25.9457 0.515418 33.4054 0.591098C45.198 0.713941 50.162 5.00447 50.3343 16.9458C50.4322 23.6511 49.4849 30.3838 48.7932 37.0817C48.578 39.1707 47.0158 39.9599 45.0023 41.0887C42.3383 42.582 40.4501 46.247 39.3353 49.3748C38.837 50.7742 40.6685 53.4773 42.0842 54.9837C44.3308 57.3732 47.2812 59.0862 49.6378 61.3883C54.4553 66.0945 56.0474 71.9618 55.325 78.6063C54.5459 85.7645 53.9351 92.9413 53.2394 100.109C53.1083 101.455 53.0266 102.817 52.7459 104.134C51.5769 109.63 51.6335 114.994 53.1593 120.5C55.5685 129.195 56.5465 138.047 55.6955 147.162C55.1963 152.513 55.977 157.976 56.0652 163.39C56.3079 178.186 56.2076 192.952 51.1352 207.151C52.144 214.937 47.9195 221.888 47.9963 229.783C48.1039 240.762 45.8582 251.755 44.8065 262.76C44.3397 267.65 44.0104 272.601 44.2823 277.487C44.3826 279.267 46.0467 281.884 47.6242 282.496C54.8323 285.289 61.2095 290.584 69.7144 289.756C72.664 289.469 73.4593 291.812 71.4821 294.219C68.378 297.999 63.9148 298.712 59.4694 298.775C55.6866 298.823 51.8997 298.029 48.1031 297.831C43.5995 297.597 39.0829 297.529 34.5728 297.528C31.6305 297.526 28.2991 298.27 26.5986 295.159C24.8544 291.97 25.5364 288.79 28.0904 286.006C28.7448 285.293 28.9455 284.04 29.0895 282.998C30.5335 272.568 29.4163 262.338 26.0913 252.413C22.425 241.47 22.7923 230.529 27.7215 220.418C31.4679 212.734 31.1394 205.337 30.2261 197.462C28.9244 186.247 27.9197 174.998 26.6916 163.773C26.5695 162.656 26.0517 161.316 25.2557 160.582C18.393 154.254 18.4415 139.6 23.5277 131.936C26.5622 127.364 27.4027 122.706 26.0032 117.565C24.6222 112.495 23.0771 107.468 21.6128 102.455Z" fill="white"/>
<path fill-rule="evenodd" clip-rule="evenodd" d="M28.1826 44.4023C25.9991 49.974 30.0934 52.0191 33.3294 54.6064C39.1945 59.2948 39.6686 61.5636 36.4084 68.4358C36.2207 68.3394 35.8655 68.1619 35.8688 68.1538C38.9518 61.588 36.0977 57.393 30.6686 53.7216C26.0396 50.5914 25.7686 48.8087 28.1826 44.4023Z" fill="white"/>
<path fill-rule="evenodd" clip-rule="evenodd" d="M34.3693 276.271C37.5786 279.983 31.4707 285.449 37.6231 288.676C34.4163 288.975 33.4948 287.364 33.5951 285.007C33.7189 282.102 34.0975 279.207 34.3693 276.271Z" fill="white"/>
<path fill-rule="evenodd" clip-rule="evenodd" d="M35.5061 77.374C39.1595 80.112 42.8129 82.8508 46.4663 85.5896C46.3644 85.7987 46.2625 86.0077 46.1613 86.2168C44.2448 84.9997 42.2458 83.8921 40.4345 82.534C38.5755 81.1387 36.9 79.4986 35.1445 77.9647C35.2651 77.7678 35.3856 77.5709 35.5061 77.374Z" fill="white"/>
<path fill-rule="evenodd" clip-rule="evenodd" d="M38.5929 214.472C37.7378 215.208 36.9077 215.924 35.8164 216.864C36.1716 213.935 36.4935 211.276 36.8155 208.616C36.9627 208.604 37.11 208.591 37.2564 208.579C37.7038 210.552 38.152 212.525 38.5929 214.472Z" fill="white"/>
</g>
</g>
<defs>
<clipPath id="clip0">
<rect width="72" height="299" fill="white" transform="translate(0.666016)"/>
</clipPath>
</defs>
</svg>
