<svg width="138" height="307" viewBox="0 0 138 307" fill="none" xmlns="http://www.w3.org/2000/svg">
<path fill-rule="evenodd" clip-rule="evenodd" d="M71.0518 0.0849657C80.5518 0.775716 85.5507 6.36473 84.5847 15.7921C83.9474 22.0064 81.2808 27.9905 79.9154 34.1644C79.171 37.5293 79.0769 41.0743 79.0817 44.5378C79.0834 45.3222 80.5876 46.3798 81.6136 46.8435C86.5475 49.0692 91.4425 51.4614 96.5582 53.1879C107.45 56.863 112.962 61.6684 112.022 77.3108C111.701 82.6445 111.627 87.7787 112.953 92.9307C113.044 93.2853 113.123 93.6602 113.11 94.0221C112.809 102.22 115.648 109.536 118.542 117.092C120.811 123.019 120.75 129.828 121.735 136.244C121.786 136.578 121.848 136.91 121.913 137.242L122.111 138.237C122.241 138.9 122.357 139.564 122.402 140.233C122.656 144.074 124.282 146.383 128.07 148.172C134.292 151.11 134.888 157.77 137.279 164.547C134.514 163.856 132.769 163.42 130.539 162.863C131.575 165.922 132.655 168.747 133.484 171.644C134.825 176.326 131.544 179.144 126.78 178.693C124.224 178.451 122.129 178.188 120.228 176.533C119.033 175.491 117.167 174.732 116.688 173.446C115.417 170.032 113.934 166.39 113.976 162.856C114.067 155.301 111.818 148.437 109.428 141.559L108.812 139.79C108.401 138.609 107.991 137.426 107.594 136.238C104.966 128.371 103.225 120.211 101.12 112.173C100.107 108.307 99.1559 104.425 97.6858 100.603C93.7227 109.345 91.1137 118.025 92.6926 127.749C92.9536 129.357 93.2162 130.966 93.4767 132.574L93.7883 134.505L94.0966 136.436C96.7509 153.176 98.8939 169.981 96.6296 187.037C96.1807 190.418 95.4136 193.829 94.2512 197.033C91.1299 205.634 90.2354 214.4 91.1121 223.469C91.9247 231.875 90.8182 240.113 88.1743 248.152C86.373 253.627 84.3566 259.059 83.0131 264.647C80.8514 273.643 83.1828 282.276 86.8219 290.4C89.5332 296.453 89.9634 298.256 85.4176 303.012C83.8216 304.682 80.3059 307.004 79.4267 306.418C77.715 305.274 76.3824 303.557 75.1036 301.78L74.626 301.111C74.1496 300.441 73.675 299.772 73.1851 299.13C72.8604 298.705 73.0032 297.936 72.9001 297.332C71.8294 291.027 70.7514 284.722 69.6758 278.418C69.0857 278.398 68.4955 278.378 67.9054 278.359C66.6699 284.271 65.6097 290.227 64.1217 296.077C63.4212 298.832 62.3034 301.669 60.6571 303.958C58.07 307.558 56.2622 307.398 53.0379 304.14C46.8157 297.854 47.181 297.231 50.6407 289.516C54.8067 280.229 57.2607 270.488 53.4714 260.242C53.1016 259.242 52.7207 258.243 52.3379 257.242L51.7636 255.741C50.1391 251.484 48.5663 247.198 47.7647 242.787C46.5486 236.097 46.3108 229.147 46.422 222.322C46.5649 213.523 45.8992 205.028 42.8908 196.627C39.0049 185.78 39.026 174.371 40.1527 163.11C41.4215 150.434 44.0517 137.88 45.0087 125.192C45.4649 119.143 43.5346 112.886 42.4419 106.767C42.0847 104.768 40.9588 102.907 40.1844 100.982L39.3434 100.937C38.2427 105.441 36.7425 109.892 36.124 114.46C34.8771 123.653 32.5579 132.487 28.7824 140.958C25.058 149.314 22.3824 157.891 22.5326 167.199C22.5715 169.591 21.8458 172.057 21.1315 174.387C19.2621 180.486 17.016 181.12 10.9318 182.634L10.3407 182.781C6.57816 183.719 5.57969 181.078 3.26291 180.437C2.71497 180.286 2.59727 177.11 2.96743 175.48C3.62983 172.565 4.81338 169.766 5.99856 166.271C4.46189 167.062 3.75322 167.595 2.95931 167.792C2.06718 168.012 1.09875 167.928 0.164408 167.977C0.131938 167.065 -0.148933 166.077 0.105961 165.253C0.19528 164.964 0.284618 164.675 0.374503 164.386L0.555158 163.808C2.37212 158.043 4.54844 152.551 11.3051 150.358C12.2394 150.055 13.1275 148.423 13.3296 147.283C14.3086 141.731 15.3265 136.159 15.7974 130.551C16.3762 123.654 18.6191 117.435 21.979 111.468C22.8256 109.964 23.1739 108.102 23.4101 106.359C23.7705 103.693 23.9037 100.992 24.0084 98.3007C24.1983 93.4372 24.8883 88.4994 24.3177 83.7174C22.8078 71.0601 26.4688 61.5237 38.8742 56.2708C43.9697 54.1129 48.8622 51.4873 53.9073 49.2058C56.4579 48.0529 57.6211 46.3321 57.6495 43.5061C57.695 39.0788 57.5416 34.8527 55.7549 30.5741C54.1265 26.6768 53.3837 22.3336 52.7659 18.1123C50.7641 4.43548 59.6546 -0.743934 71.0518 0.0849657ZM58.8444 38.8752C58.8444 39.49 58.7714 40.3512 58.8566 41.1963C59.351 46.1301 57.3005 49.2179 52.5882 51.0946C47.5682 53.0934 42.7926 55.698 37.9001 58.0142C28.6086 62.4149 24.2008 69.4573 25.3616 79.9009C26.1457 86.9474 26.1149 93.9866 24.8705 101.082C23.9897 106.107 23.4945 111.588 28.9033 115.267C27.7384 114.968 26.744 114.552 26.0151 113.858C25.17 113.051 24.5596 112.003 23.7989 110.997C18.5827 117.933 17.3608 125.736 16.4912 133.599L16.3795 134.625C16.3428 134.967 16.3063 135.309 16.27 135.651L16.1609 136.678C15.6863 141.123 15.1726 145.554 13.962 149.826C16.3932 150.611 18.3147 151.231 20.2361 151.851L20.2296 152.94C15.402 150.674 10.654 150.412 6.88663 154.034C3.37575 157.409 1.86343 161.983 1.45106 167.082C4.03815 165.113 5.92307 162.461 8.37703 160.526C10.8943 158.542 13.9685 157.259 16.5036 155.835C15.7414 159.13 17.8836 162.948 20.8879 164.011C22.3085 158.435 23.5132 152.73 25.2317 147.182C28.0169 138.184 31.3613 129.355 34.0475 120.33C36.1727 113.187 37.7077 105.867 39.3929 98.6013C39.686 97.3385 39.5853 95.9239 39.3881 94.6208C38.6315 89.607 37.7613 84.6101 37.0883 80.5424C39.0163 82.9822 41.5547 86.1952 44.3853 89.7799C42.6603 88.7797 41.2981 87.9896 39.6235 87.0201C39.7363 88.4598 39.6925 89.4575 39.9068 90.3963C41.2048 96.1097 42.4573 101.836 43.9258 107.507C46.0023 115.524 47.5974 123.531 44.8456 131.56C50.8965 135.337 53.0338 138.868 51.8592 143.284C50.9322 138.905 49.691 135.013 44.7579 133.208C44.3333 136.299 43.9867 139.073 43.5678 141.836C41.2405 157.167 39.6007 172.536 41.8777 188.016C42.3729 191.385 43.3957 194.708 44.4786 197.953C47.1201 205.871 48.216 213.944 47.3076 222.244C46.0023 234.172 48.617 245.43 53.1864 256.327C56.9165 265.222 57.3459 274.147 54.0461 283.24C52.4023 287.767 50.8429 292.324 49.0797 297.341C50.2397 296.439 50.9638 295.877 52.0183 295.057C51.3981 296.878 50.9573 298.173 50.5174 299.468C50.7357 299.577 50.9533 299.685 51.1725 299.794C52.0061 298.827 52.8398 297.86 54.3018 296.166C53.3196 298.849 52.7034 300.533 52.0873 302.217C52.4364 302.411 52.7871 302.604 53.1369 302.797L57.0383 297.602C56.8475 299.273 55.8563 300.49 55.3246 301.881C54.9626 302.826 55.2426 304.015 55.237 305.095C56.3694 304.948 58.0603 305.214 58.5352 304.579C60.1741 302.388 61.8999 300.03 62.6492 297.464C63.9131 293.139 63.8928 288.398 65.4514 284.216C67.1593 279.631 67.4021 275.283 66.7762 270.55C66.1544 265.852 65.5569 260.981 66.1235 256.327C67.4077 245.777 66.6682 235.536 63.5291 225.416C63.219 224.413 63.077 223.304 63.1216 222.256C63.2485 219.299 63.3948 216.342 63.545 213.385L63.8456 207.472C64.1418 201.559 64.4112 195.646 64.5276 189.729C64.6429 183.856 64.9911 178.153 67.5214 172.766C67.6975 173.502 67.6529 174.21 67.4573 174.872C65.6584 180.958 65.7355 187.109 65.8443 193.427C66.0034 202.787 64.897 212.166 64.3872 221.541C64.3166 222.833 64.3571 224.205 64.7159 225.433C67.6074 235.338 68.601 245.354 67.1642 255.625C66.3508 261.438 66.4296 267.261 69.0832 272.846C69.1425 272.479 69.2033 272.112 69.2648 271.745L69.4505 270.642C70.1642 266.408 70.8626 262.13 70.3163 258.015C68.8024 246.607 69.4006 235.522 72.8937 224.567C73.1421 223.79 73.1201 222.89 73.0625 222.059C72.9051 219.787 72.7067 217.516 72.5018 215.244L72.2548 212.518C71.7633 207.066 71.3123 201.616 71.3748 196.171L71.3831 195.514L71.4025 194.202C71.4058 193.984 71.4093 193.765 71.4127 193.547L71.4322 192.238C71.5229 185.698 71.4693 179.231 69.4696 172.869C69.4501 172.81 69.7253 172.658 70.1531 172.319C72.1744 178.468 72.9367 184.498 72.7435 190.853C72.4715 199.758 72.9302 208.687 73.1404 217.603C73.1656 218.688 73.7395 219.756 73.7858 220.843C73.8572 222.481 74.0439 224.241 73.5642 225.756C70.6962 234.805 70.3918 244.047 70.7514 253.431C70.9787 259.38 70.5436 265.352 70.4324 271.315C70.3804 274.112 69.99 276.978 70.4519 279.696C71.5096 285.933 72.7646 292.161 74.4255 298.261C75.0919 300.712 76.89 302.928 78.4891 305.012C78.9153 305.567 80.5056 305.237 81.5617 305.312C81.6014 304.313 81.94 303.201 81.6161 302.338C81.0486 300.829 80.0745 299.472 79.2709 298.052L79.7855 297.738L83.8257 303.036C84.1593 302.839 84.4946 302.642 84.8282 302.446C84.1626 300.679 83.4977 298.913 82.8329 297.147C82.9717 297.09 83.1097 297.032 83.2493 296.974C84.0765 298.063 84.9037 299.151 85.7309 300.239L86.4485 299.867C85.9752 298.451 85.5028 297.035 85.0303 295.619L85.8421 294.887L87.2611 297.831C87.0784 295.068 86.3154 292.782 85.506 290.511C82.134 281.055 79.3772 271.539 82.6348 261.44C83.7632 257.94 84.8104 254.407 86.1108 250.97C89.2872 242.569 90.7898 233.899 90.0673 224.967C89.2126 214.414 90.0649 204.16 94.071 194.252C94.7512 192.57 94.9988 190.694 95.3032 188.884C97.9688 173.019 95.9671 157.385 93.7334 141.411L93.4749 139.566C93.3453 138.643 93.2156 137.719 93.0865 136.793L92.8295 134.94C92.7443 134.322 92.6596 133.703 92.5757 133.083C87.8869 134.73 86.5714 138.408 85.3358 142.127L85.1042 142.825C84.9825 138.465 86.5816 134.983 90.3125 132.915C92.0903 131.929 92.5367 130.907 92.005 129.119C89.8014 121.689 91.4991 114.67 93.5317 107.611L93.782 106.746C93.9497 106.17 94.1186 105.593 94.2869 105.015C95.9616 99.2621 96.8643 93.2869 98.1111 87.4103C97.7572 87.3303 97.4033 87.2504 97.0493 87.1704C95.7943 87.9387 94.5402 88.707 92.9946 89.653C95.8065 86.0587 98.3149 82.853 101.012 79.4049C100.928 80.0706 100.951 80.439 100.831 80.7533C98.0486 88.0453 96.2757 95.3172 99.8093 102.968C100.921 105.375 101.534 108.111 101.86 110.759C103.005 120.082 105.516 128.967 109.098 137.666C109.397 138.393 109.702 139.12 110.006 139.848L110.372 140.723C112.866 146.703 115.233 152.786 114.622 159.567C114.602 159.786 114.734 160.018 114.884 160.252L115.035 160.486C115.084 160.564 115.13 160.642 115.169 160.719C115.568 160.841 115.967 160.963 116.366 161.084C117.864 157.876 119.361 154.668 120.504 152.218C122.343 153.264 125.009 154.603 127.468 156.249C128.822 157.156 129.841 158.566 130.987 159.772C132.14 160.985 133.265 162.226 134.401 163.454C134.708 163.227 135.014 163 135.321 162.772C134.627 158.161 132.976 153.762 129.724 150.411C126.042 146.616 121.234 146.612 116.288 148.005C118.27 147.29 120.254 146.575 122.536 145.752C121.143 141.184 120.628 136.419 120.14 131.666L120.036 130.648C120.001 130.309 119.966 129.97 119.93 129.631L119.822 128.615C119.011 121.171 117.816 113.871 112.932 107.529C111.189 108.821 109.652 109.964 108.113 111.105C107.877 110.859 107.641 110.615 107.406 110.369C112.584 107.912 113.044 103.312 112.542 98.7168C111.642 90.4811 110.49 82.4014 111.011 73.9572C111.673 63.2066 107.523 58.5846 97.37 54.6615C95.9172 54.1 94.489 53.4675 93.0659 52.8228L91.3593 52.0472C89.0838 51.0152 86.8012 50.0122 84.4313 49.2793C79.654 47.8013 77.0709 45.2348 77.352 40.3156L77.3636 40.1427L77.3553 40.1461C73.8537 41.5755 70.7065 43.7944 67.7276 43.5901C65.7642 43.4551 63.8757 42.2356 61.9834 40.9331L61.4155 40.5409L60.8469 40.1497C60.183 39.6962 59.5166 39.257 58.8444 38.8752ZM15.0432 158.738C13.194 159.55 11.4098 160.105 9.89341 161.076C8.79022 161.781 7.61235 162.889 7.21215 164.067C6.00018 167.645 5.10724 171.332 4.1794 174.999C3.79462 176.519 3.63795 178.097 3.37737 179.649C3.89447 179.811 4.41156 179.971 4.92866 180.132L9.106 170.358C9.08327 172.493 8.44522 174.42 7.89484 176.371C7.36801 178.242 6.93209 180.139 6.45558 182.024C6.9329 182.174 7.40941 182.324 7.8851 182.474C10.0377 180.925 10.768 178.709 11.3894 176.42L11.6847 175.318C12.0568 173.94 12.4654 172.571 13.194 171.338L11.4268 181.843C14.7242 180.254 15.3623 177.587 16.0947 174.976L16.2181 174.541C16.5521 173.385 16.935 172.252 17.6084 171.242C17.2707 173.882 16.933 176.523 16.5953 179.164C20.3538 175.481 21.3969 171.108 21.4351 166.136C21.0541 166.186 20.6756 166.239 20.2996 166.292L19.7377 166.371C15.7251 166.931 12.0271 167.346 8.89981 164.581C12.1647 164.979 15.5051 165.386 19.6443 165.89C17.6482 162.787 16.2909 160.677 15.0432 158.738ZM121.487 154.626L121.31 154.907L120.956 155.471C119.892 157.165 118.793 158.915 117.304 161.286L116.793 162.1C121.074 161.455 124.304 160.968 127.532 160.482C125.71 161.604 123.729 162.346 121.686 162.599C119.556 162.864 117.366 162.658 115.206 162.658C115.117 168.411 116.817 173.11 119.944 175.205C119.543 172.377 119.175 169.781 118.806 167.184C119.479 168.191 119.865 169.33 120.205 170.491L120.392 171.145C121.116 173.693 121.833 176.242 125.056 177.625L123.121 167.192C124.052 168.519 124.474 170.084 124.871 171.648L125.003 172.169C125.598 174.51 126.258 176.788 128.617 178.194L129.919 177.745C128.871 173.944 127.823 170.143 126.776 166.342C126.944 166.299 127.112 166.256 127.28 166.213C128.639 169.479 129.998 172.745 131.358 176.011C131.91 175.818 132.461 175.626 133.013 175.434C131.677 169.959 130.662 164.373 128.801 159.081C128.462 158.119 127.141 157.501 125.748 156.906L125.085 156.624C124.498 156.373 123.924 156.117 123.429 155.833C122.794 155.467 122.183 155.06 121.487 154.626ZM69.0667 80.5741C70.5879 88.0584 70.7016 88.2159 75.6022 90.1912C75.4528 90.4627 75.3035 90.735 75.1541 91.0072C73.0281 89.8091 70.9021 88.6118 68.8483 87.4549C67.1395 88.5084 65.0022 89.8261 62.864 91.1438C62.7211 90.9078 62.5766 90.6711 62.4321 90.4352C64.041 89.2775 66.0875 88.4163 67.1371 86.8805C68.2354 85.2736 68.3742 83.0179 69.0667 80.5741ZM61.8691 2.16368C56.0544 4.26501 53.4965 8.37397 53.6362 16.9684C53.9625 23.4202 55.875 30.9684 60.5077 37.6036C65.453 44.6872 71.0631 44.7842 76.2178 37.8961C80.6752 31.9403 82.8264 25.0885 83.5075 17.7439C83.8979 13.5291 83.9815 9.37091 81.073 5.83394C77.2812 1.22167 68.886 -0.370687 61.8691 2.16368Z" fill="white"/>
</svg>
