<svg width="49" height="300" viewBox="0 0 49 300" fill="none" xmlns="http://www.w3.org/2000/svg">
<path d="M16.4806 0.658447C15.4188 1.34039 13.5077 3.24515 12.564 4.58554C12.1393 5.19696 11.9034 5.29102 10.3698 5.4321C8.50587 5.59671 7.60931 6.06705 7.09025 7.14874C6.68916 7.94827 6.92509 8.67728 7.6565 8.93594C8.45869 9.24164 9.23728 8.88892 10.8181 7.52499C11.5731 6.86658 12.3281 6.34921 12.5168 6.34921C12.7056 6.34921 13.319 6.81952 13.8853 7.40741C15.3245 8.86539 15.7963 8.81836 17.5423 7.05469C18.3209 6.27869 19.0287 5.64374 19.1231 5.64374C19.2174 5.64374 19.3118 6.09055 19.3118 6.65494V7.66611L15.9615 10.488C14.1212 12.0165 12.4696 13.5215 12.2809 13.8037C11.9742 14.2975 11.9978 14.3445 12.5404 14.6032C13.0831 14.8619 13.2718 14.7913 14.2863 13.9448C15.9379 12.5573 16.976 11.993 17.8254 11.993C18.6748 11.993 18.9107 12.3222 19.1702 13.6626C19.2646 14.1564 19.5949 14.9089 19.9017 15.3792L20.4679 16.2258H19.9017C19.3826 16.2258 19.3118 16.3199 19.2882 17.0959C19.2882 17.9659 19.2882 17.9894 18.9107 17.4486C18.1793 16.4139 16.6929 16.9077 15.0177 18.789C13.1302 20.8584 12.7528 22.2928 13.7201 23.4216C14.4279 24.2211 15.0649 24.1035 16.6221 22.8102C18.1085 21.5873 18.6512 21.5873 19.4062 22.8572C19.9017 23.6802 19.9488 23.8919 19.6657 23.9389C19.477 23.9859 19.3118 24.2681 19.3118 24.5974C19.3118 24.9266 19.1702 25.1617 18.9815 25.1617C18.4388 25.1617 15.0177 26.9724 14.074 27.7484C13.1067 28.548 12.7528 29.7943 13.1538 30.876C13.5077 31.7696 14.1684 31.6991 16.2446 30.4527C17.212 29.8648 18.1557 29.4181 18.3445 29.4416C19.0995 29.6062 19.6421 30.782 19.7365 32.5221L19.8309 34.2152L19.2646 33.6744C18.4388 32.9454 17.8962 33.0159 16.8581 34.0741C16.3626 34.5915 15.3953 35.391 14.6874 35.9084C13.0595 37.0606 12.7292 37.672 13.201 38.5186C13.3898 38.8713 13.8381 39.2946 14.2156 39.4827C15.0413 39.859 15.584 39.6473 16.9524 38.4245C17.731 37.7191 18.0142 37.578 18.3209 37.7896C19.1702 38.3069 19.5949 39.4827 19.7365 41.5756L19.8545 43.598L19.2882 43.1982C17.6602 42.0224 15.8907 41.7873 14.2392 42.5398C12.9887 43.1042 12.6348 43.5745 12.6112 44.7502C12.5876 45.5968 12.6584 45.7379 13.1067 45.8084C13.3898 45.8555 14.0976 45.6673 14.711 45.3852C15.3245 45.103 15.9851 44.9149 16.1974 44.9619C16.4098 45.0089 16.8817 45.6203 17.2356 46.3258C17.5659 47.0312 18.0849 47.7838 18.3681 48.0189C18.722 48.3011 18.8871 48.7244 18.9343 49.3828C18.9343 49.9002 18.8871 50.3234 18.8163 50.3234C18.7456 50.3234 18.4388 49.9002 18.1557 49.3593C17.2356 47.7367 16.2682 46.7961 15.5368 46.7961C13.956 46.7961 11.5259 49.5004 11.3607 51.4287C11.2428 52.5339 11.1956 52.5809 10.2046 53.0042C7.63291 54.0624 7.06666 55.638 8.76541 57.0019C9.61478 57.6603 9.80353 57.7309 11.2428 57.6838C12.1157 57.6603 13.1067 57.6133 13.437 57.5898C14.2863 57.5192 15.3009 58.2952 16.3154 59.7767C17.8254 62.0342 17.849 61.9872 14.6167 61.8226C12.1865 61.705 11.5967 61.5874 10.4642 61.0466C9.21369 60.4116 9.11931 60.4116 8.55306 60.7879C7.18462 61.6815 7.42056 63.1395 9.09572 64.2447C11.2192 65.6321 14.947 66.6433 15.9379 66.1024C16.7401 65.6791 17.1412 66.4316 17.4007 68.7597C17.5423 69.912 17.8254 71.1583 18.0613 71.5816C18.3445 72.0519 18.4624 72.6633 18.4153 73.2982L18.3445 74.3094L17.0468 72.922C14.3099 69.9825 11.5259 68.9008 10.5349 70.4058C10.0159 71.1818 10.7945 73.0866 12.0685 74.1448C12.9651 74.8737 14.3099 75.4852 15.0413 75.4852C16.0323 75.4852 16.6457 76.2377 16.976 77.8132C17.3535 79.6239 17.8962 81.3405 18.1557 81.4816C18.2737 81.5757 18.3681 81.999 18.3681 82.4693V83.3159L17.4007 82.2106C15.702 80.2823 13.6729 79.6709 12.3752 80.6821C12.0449 80.9408 11.7618 81.4111 11.7618 81.6933C11.7618 82.4928 12.682 83.6921 13.9796 84.6327C14.8998 85.2912 15.3953 85.4793 16.5278 85.5499C18.1793 85.6674 18.0613 85.3852 18.2265 89.9708L18.3445 93.31L17.2828 92.7221C15.3481 91.6404 13.1538 92.0637 12.3752 93.6862C11.809 94.862 11.8798 97.1195 12.4932 97.9191C13.0595 98.648 13.6965 98.6951 15.4424 98.1542C17.1412 97.6134 17.4243 97.7545 17.4243 99.3065C17.4243 100.224 17.5659 100.741 17.8962 101.188C18.2737 101.658 18.3681 102.128 18.3681 103.563V105.35H17.4243C16.0559 105.35 14.0032 106.197 13.2718 107.067C12.7292 107.702 12.6584 107.96 12.7528 109.042C12.8235 109.794 13.0359 110.476 13.2954 110.759C13.8617 111.394 15.1121 111.37 16.2446 110.735C16.7401 110.453 17.3063 110.288 17.4951 110.359C18.0142 110.547 18.4153 113.298 18.3209 115.932L18.2501 118.166L16.2918 118.542C13.3898 119.107 12.4696 119.953 12.4696 122.046C12.4696 124.21 13.4842 124.633 16.0559 123.551C18.0849 122.705 18.1557 122.799 18.3917 127.031C18.5332 129.877 18.5096 130.488 18.2029 130.959C17.8962 131.429 17.7546 131.476 17.1176 131.311C16.6929 131.217 15.8199 131.123 15.1357 131.1C14.0976 131.1 13.8145 131.194 13.201 131.782C12.0921 132.84 12.1865 133.686 13.6021 135.191C14.2156 135.85 14.9234 136.391 15.1357 136.391C15.3481 136.391 16.0087 136.226 16.6221 136.014C18.2265 135.474 18.3445 135.591 18.4153 137.966C18.486 139.941 18.5096 140.036 19.0287 140.106C19.5713 140.177 19.5713 140.2 19.1702 140.647C18.9343 140.929 18.6748 141.705 18.5804 142.575C18.3445 144.527 17.8726 144.927 16.0087 144.715C14.6638 144.574 14.6403 144.574 14.0268 145.397C12.8707 146.902 12.9887 148.948 14.2627 149.536C15.3717 150.03 16.6221 149.865 17.5423 149.066L18.3681 148.337V149.653V150.97H19.5949H20.8218L19.7601 151.629C18.3681 152.522 18.0142 153.204 18.2265 154.709C18.4153 156.144 18.2265 156.332 15.4896 157.813C12.0449 159.671 11.2428 160.894 12.7292 162.117C13.1302 162.446 13.7201 162.799 14.0504 162.869C14.947 163.104 16.4098 162.564 17.4479 161.623C18.0849 161.059 18.3681 160.917 18.3681 161.153C18.3681 161.411 18.6512 161.552 19.3826 161.599L20.3735 161.67L19.5478 162.187C18.5568 162.799 17.9906 163.692 17.7782 164.962C17.4243 167.031 16.8817 167.666 15.3953 167.666C14.8998 167.666 14.6874 167.902 14.2156 168.96C13.4134 170.676 12.9887 172.934 13.3898 173.381C13.8145 173.898 14.3571 173.639 16.4098 172.017L18.2501 170.535L18.3681 172.346C18.4624 173.592 18.5804 174.11 18.7928 174.063C19.3118 173.969 19.0759 174.368 18.3681 174.792C17.4007 175.356 17.1176 176.014 17.2592 177.19C17.4243 178.319 17.1648 178.719 16.221 178.719C15.0885 178.719 13.7201 180.153 14.0032 181.047C14.1448 181.517 15.6784 182.246 16.5042 182.246C16.7873 182.246 17.3063 181.917 17.6602 181.541L18.3209 180.835L18.4153 182.622C18.486 184.363 18.4624 184.41 17.849 184.739C16.9053 185.233 16.5513 185.915 16.3862 187.608C16.1502 190.03 15.7727 190.594 13.5549 191.676C11.3843 192.758 10.8181 193.204 10.8181 193.769C10.8181 195.086 14.4515 194.404 15.702 192.875L16.221 192.24L16.2446 195.321C16.2446 197.837 16.1738 198.472 15.8671 198.707C15.584 198.942 15.5132 199.412 15.584 200.635C15.6548 202.658 15.4424 202.916 14.0032 202.517C11.1956 201.764 7.68009 202.775 8.71822 204.022C9.11931 204.492 11.4787 204.892 13.0831 204.751C15.3009 204.539 15.5604 204.656 15.3717 205.879C15.2773 206.702 15.3245 206.961 15.7492 207.384C16.1738 207.808 16.2446 208.16 16.2446 209.618V211.358L15.3717 211.805C14.7582 212.111 14.4515 212.44 14.3099 212.934L14.1448 213.663H11.9506C9.66197 213.639 8.34072 214.039 8.34072 214.698C8.34072 215.121 13.4606 217.802 14.2627 217.802C14.7346 217.802 14.8762 217.99 15.0649 218.789C15.2065 219.307 15.4188 219.989 15.5368 220.294C15.8671 221.07 15.8435 226.691 15.5132 226.691C15.3717 226.691 14.6638 226.503 13.9324 226.291C13.1302 226.056 11.7146 225.891 10.417 225.891C8.48228 225.868 8.17556 225.915 7.72728 226.385C7.34978 226.738 7.25541 227.043 7.37337 227.49C7.70369 228.784 9.14291 229.442 11.0068 229.136C12.3988 228.925 13.9088 229.654 14.4751 230.829C14.8998 231.699 14.8998 231.77 14.4751 232.805C13.5313 235.203 13.8145 237.226 15.2065 237.743C15.7492 237.955 15.7727 238.049 15.7727 240.095C15.7727 242.211 15.6312 242.54 15.0413 241.811C14.4987 241.176 12.4224 240.33 11.3607 240.33C10.3698 240.33 9.40244 240.918 9.40244 241.529C9.40244 242.14 10.2282 243.434 11.2192 244.351C12.1157 245.174 12.3988 245.291 12.9887 245.174L13.6729 245.033L13.4842 246.397C13.3898 247.126 13.2954 248.301 13.319 248.983C13.3426 250.089 13.2954 250.206 12.8235 250.206C12.5404 250.206 12.1157 249.971 11.8562 249.689C11.3135 249.101 8.52947 247.761 7.01947 247.384C4.77806 246.82 3.38603 248.184 2.11197 252.205C0.318843 257.731 -0.38897 262.646 0.224468 264.904C0.625561 266.314 1.19181 266.973 3.504 268.69C5.83978 270.43 7.34978 272.146 8.57666 274.474C9.44963 276.144 10.1102 278.543 10.1102 280.212C10.1102 281.882 10.9596 284.116 12.0213 285.339C13.2718 286.726 13.6257 286.914 15.6312 287.126C17.6367 287.361 18.1321 287.808 18.1321 289.383C18.1321 290.206 17.9906 290.559 17.4243 291.17C16.2446 292.393 16.7165 294.086 18.2973 294.275C19.4062 294.416 19.4534 294.486 20.5151 296.579C22.2846 300.106 23.134 301 24.644 301C25.5642 301 26.8146 299.589 27.9943 297.167C29.1504 294.815 29.6931 294.157 30.3773 294.345C31.1087 294.533 32.0524 293.451 32.0524 292.417C32.0524 291.876 31.9109 291.523 31.6985 291.429C31.2267 291.265 30.6368 290.136 30.6368 289.383C30.6368 287.878 31.5334 287.126 33.3737 287.126C36.2521 287.126 38.2104 284.586 38.7059 280.236C39.2957 274.898 41.4663 271.3 45.8784 268.313C48.167 266.761 48.804 265.538 48.804 262.717C48.804 259.095 46.8693 251.382 45.3829 249.054C44.0381 246.914 42.646 246.773 39.2485 248.396C38.0217 249.007 36.9363 249.642 36.8656 249.854C36.7948 250.042 36.4409 250.206 36.087 250.206C35.4735 250.206 35.4735 250.183 35.4735 248.607C35.4735 247.737 35.3792 246.561 35.2612 245.997C35.0724 245.033 35.096 244.986 35.5915 245.15C36.3229 245.386 37.3138 244.892 38.116 243.904C39.5081 242.164 39.6968 241.294 38.8474 240.706C37.7857 239.953 35.6859 240.377 34.0107 241.647L33.2321 242.234V240C33.2321 238.284 33.3029 237.743 33.5388 237.743C33.7276 237.743 34.1051 237.461 34.4354 237.132C34.8837 236.638 35.0017 236.285 34.9781 235.321C34.9781 234.639 34.7893 233.769 34.577 233.346C33.3737 231.065 35.2612 228.713 37.9273 229.16C39.107 229.348 40.6642 228.925 41.136 228.266C41.3248 227.984 41.4899 227.467 41.4899 227.09C41.4899 225.797 39.2957 225.421 35.8746 226.126C34.8837 226.338 33.8692 226.597 33.6568 226.714C33.2557 226.926 33.2321 226.738 33.2321 223.939C33.2321 221.94 33.3737 220.388 33.6096 219.354C33.9635 217.896 34.0579 217.755 34.6242 217.755C35.4499 217.731 40.4046 215.144 40.499 214.674C40.617 214.063 39.3901 213.686 37.0071 213.639L34.7657 213.616L34.5534 212.863C34.4118 212.323 34.1287 212.04 33.4445 211.782L32.5243 211.405V209.571C32.5243 208.019 32.5951 207.714 32.9962 207.455C33.3737 207.243 33.4681 206.914 33.4681 205.997C33.4681 205.221 33.5624 204.821 33.7748 204.798C33.9163 204.774 35.1668 204.751 36.5353 204.727C38.5171 204.704 39.1778 204.609 39.6968 204.28C40.5226 203.739 40.4046 203.175 39.3665 202.634C38.7059 202.281 38.2104 202.234 36.7712 202.352C35.8038 202.423 34.6242 202.493 34.1759 202.54L33.3501 202.587L33.2793 200.776C33.2321 199.554 33.1142 198.895 32.8782 198.707C32.5951 198.472 32.5243 197.743 32.5243 195.368V192.311L33.4445 193.134C34.8365 194.38 37.2903 194.897 37.9745 194.098C38.2576 193.745 38.1868 193.604 37.4082 192.946C36.9128 192.499 35.8274 191.864 34.9781 191.511C33.704 190.97 33.4209 190.735 33.0198 189.912C32.7603 189.371 32.5007 188.266 32.4063 187.42C32.2412 185.82 31.9109 185.233 30.8728 184.715C30.3065 184.433 30.2829 184.339 30.3537 182.622L30.4481 180.835L31.1323 181.564C31.7457 182.223 31.9345 182.293 32.7838 182.176C34.8837 181.893 35.4971 180.671 34.1759 179.424C33.704 178.977 33.1378 178.719 32.5715 178.672L31.6985 178.601L31.6278 177.143C31.557 175.779 31.5098 175.638 30.684 174.956C30.2121 174.58 29.9526 174.251 30.0942 174.251C30.2829 174.251 30.4009 173.616 30.4481 172.37L30.5188 170.488L32.1704 171.805C34.2703 173.475 34.9545 173.851 35.332 173.475C35.7095 173.099 35.6623 171.899 35.1196 170.23C34.5298 168.325 34.0815 167.666 33.3265 167.666C32.9962 167.666 32.5243 167.549 32.2412 167.408C31.7221 167.126 31.1087 165.856 31.1087 165.056C31.1087 164.186 30.3537 162.916 29.3863 162.234L28.4426 161.552H29.4099C30.1649 161.552 30.4009 161.458 30.4009 161.176C30.4009 160.894 30.6368 161.011 31.2738 161.552C33.067 163.128 34.8129 163.34 36.1106 162.117C37.5262 160.753 36.8184 159.695 33.1849 157.719C32.076 157.108 31.0379 156.449 30.8492 156.238C30.6368 155.956 30.5424 155.391 30.5896 154.451C30.684 153.157 30.6368 153.04 29.8818 152.311C29.4571 151.911 28.8909 151.441 28.6313 151.276C28.2303 151.041 28.301 150.994 29.292 150.994L30.4009 150.97V149.677C30.4009 148.971 30.4717 148.384 30.5424 148.384C30.6132 148.384 30.9907 148.689 31.3446 149.089C31.9109 149.7 32.1704 149.795 33.2085 149.795C34.1995 149.795 34.5534 149.677 35.0017 149.207C35.9926 148.243 35.7095 146.15 34.4354 144.997C34.0343 144.645 33.7512 144.598 32.7603 144.715C32.076 144.809 31.3918 144.762 31.1087 144.621C30.6368 144.362 30.1649 143.069 30.1649 142.011C30.1649 141.658 29.9526 141.117 29.6931 140.788C29.0796 140.036 29.1032 139.965 29.811 140.106L30.4009 140.2V138.248C30.4009 135.615 30.4953 135.497 32.0524 135.991C32.7367 136.202 33.4681 136.391 33.704 136.391C34.1759 136.391 36.1578 134.345 36.3937 133.616C36.6296 132.91 35.969 131.782 35.096 131.311C34.3646 130.959 33.5153 130.959 31.6749 131.335C30.4717 131.593 30.3065 131.147 30.3773 127.854C30.4245 125.009 30.684 123.363 31.1087 123.104C31.2267 123.034 32.0053 123.245 32.831 123.575C33.6568 123.904 34.6006 124.163 34.9309 124.163C36.2285 124.163 36.842 122.469 36.1813 120.753C35.7095 119.483 34.8129 118.942 32.5479 118.566C30.3537 118.166 30.3537 118.19 30.4717 115.133C30.6604 110.382 30.9907 109.747 32.6423 110.759C34.4354 111.864 36.1106 110.923 36.1578 108.783C36.1813 107.984 36.0398 107.607 35.5915 107.114C34.7185 106.173 33.3265 105.538 31.7693 105.421L30.4009 105.279V103.657C30.4009 102.34 30.4953 101.893 30.9199 101.329C31.2974 100.811 31.4626 100.271 31.4862 99.33C31.5098 98.6245 31.5806 97.9661 31.6749 97.8956C31.7457 97.8015 32.312 97.872 32.949 98.0366C34.8837 98.5775 35.8274 98.507 36.3465 97.8015C37.4082 96.3905 36.9363 93.4746 35.4971 92.534C34.5298 91.8991 32.7603 91.9931 31.439 92.7691L30.3537 93.4041L30.4717 92.3929C30.566 91.8285 30.6132 90.2765 30.6132 88.9596C30.6132 85.9966 30.7784 85.5969 32.0996 85.5969C33.4209 85.5969 34.8837 84.8444 36.0398 83.5981C37.2195 82.3282 37.3138 81.4111 36.3937 80.6821C35.096 79.6709 32.9254 80.3764 31.2503 82.3517L30.4009 83.3629V82.6104C30.4009 82.2106 30.6132 81.5052 30.8728 81.0819C31.1087 80.6351 31.4862 79.5063 31.6985 78.5422C32.1704 76.2141 32.6187 75.6498 34.0579 75.4381C37.7857 74.8973 40.2867 69.6533 36.7712 69.7473C35.4971 69.7944 33.9163 70.7585 32.0053 72.7103L30.4009 74.3329V73.2982C30.4009 72.7338 30.6132 71.8402 30.8728 71.3229C31.1323 70.782 31.4154 69.5827 31.4862 68.6186C31.6749 66.5022 32.076 65.7262 32.8074 66.1024C34.0107 66.7374 38.7059 65.2794 40.3338 63.7509C41.372 62.7397 41.5135 61.9872 40.7821 61.2112C40.0743 60.4352 39.4609 60.3411 38.6823 60.882C37.8093 61.4934 36.2521 61.7991 33.5624 61.8931L31.3918 61.9637L31.6278 61.3758C32.2176 59.8473 33.7748 58.0601 34.9545 57.6368C35.3792 57.4722 35.8038 57.4722 36.2049 57.6133C38.4463 58.4598 41.7023 56.6962 41.0417 54.9795C40.7585 54.2741 40.1923 53.7802 38.8003 53.0748C37.7857 52.5574 37.6442 52.3928 37.5734 51.6638C37.3846 49.5474 34.9073 46.7961 33.1613 46.7961C32.5007 46.7961 31.9109 47.384 30.8492 49.1477L30.047 50.441L29.9762 49.5474C29.9054 48.8419 30.047 48.4892 30.566 47.9013C30.9199 47.478 31.439 46.702 31.6749 46.1376C32.2412 44.8913 32.8546 44.7032 34.1759 45.3852C35.5679 46.0906 36.1578 45.9495 36.2521 44.8913C36.3465 43.8331 35.4735 42.7279 34.2703 42.3281C32.949 41.8813 31.0615 42.14 30.0706 42.869C29.6223 43.2217 29.174 43.5039 29.0796 43.5039C28.7257 43.5039 29.1504 39.7885 29.5987 38.9184C30.3773 37.4369 30.684 37.3898 32.0053 38.4951C33.6804 39.906 34.2231 39.9766 35.214 38.9889C36.3229 37.8837 36.1578 37.4369 33.9635 35.7673C32.9726 35.0148 31.9109 34.1212 31.6042 33.7684C30.9671 33.0865 30.1413 32.9689 29.6931 33.5098C29.1976 34.1212 28.9853 33.9095 28.9853 32.8043C28.9853 31.5345 29.5751 29.9354 30.1649 29.6297C30.7076 29.3475 31.1087 29.4886 32.8546 30.6173C35.0017 32.0048 35.8274 31.7696 35.8274 29.8413C35.8274 28.8537 35.7331 28.6656 34.8601 27.866C33.9399 27.043 30.4009 25.1617 29.7638 25.1617C29.5987 25.1617 29.4571 24.903 29.4571 24.5738C29.4571 24.1976 29.3156 23.9859 29.1032 23.9859C28.8201 23.9859 28.8437 23.7978 29.292 23.1159C30.3065 21.5168 30.684 21.5168 32.7131 23.1629C34.1051 24.2681 34.7421 24.2446 35.3556 23.0453C35.851 22.1047 35.851 22.0812 35.3792 21.0465C34.8601 19.8707 32.9726 17.7543 32.0053 17.2605C31.1323 16.8137 30.6368 16.8372 29.9998 17.4486L29.4571 17.9424V17.0959C29.4571 16.3199 29.3863 16.2258 28.8437 16.2258H28.2303L28.8201 15.5438C29.1268 15.1676 29.5279 14.3445 29.6695 13.7331C29.8346 13.0982 30.0706 12.4633 30.2121 12.2987C30.8256 11.5697 32.3828 12.1811 34.7421 14.0858C35.7567 14.8854 36.1106 14.9795 36.5117 14.4856C36.9128 14.0153 35.851 12.9101 32.2884 9.97061C29.4807 7.66611 29.4571 7.64258 29.4571 6.63141C29.4571 6.09055 29.5751 5.64374 29.6931 5.64374C29.8346 5.64374 30.5424 6.27869 31.2738 7.05469C32.9726 8.81836 33.4445 8.86539 34.8837 7.40741C35.4499 6.81952 36.1106 6.34921 36.3465 6.34921C36.5824 6.34921 37.361 6.89008 38.0924 7.52499C39.6968 9.0065 40.3574 9.28867 41.2068 8.88892C42.0326 8.48914 42.1506 7.57202 41.4663 6.72546C40.7821 5.85538 39.6732 5.4086 38.2576 5.4086C37.0779 5.4086 36.0634 4.91476 36.0634 4.3739C36.0634 3.90359 33.0434 0.964142 32.0288 0.470306C30.802 -0.164612 30.4953 -0.141083 27.9707 0.870087C25.0923 2.02234 23.6767 2.04587 21.1993 0.987671C18.604 -0.141083 17.7782 -0.18811 16.4806 0.658447ZM23.6295 27.9131C23.3228 27.9601 22.8509 27.9601 22.5678 27.9131C22.261 27.866 22.497 27.819 23.0868 27.819C23.6767 27.819 23.9126 27.866 23.6295 27.9131ZM26.2248 27.9131C25.9181 27.9601 25.4462 27.9601 25.1631 27.9131C24.8563 27.866 25.0923 27.819 25.6821 27.819C26.272 27.819 26.5079 27.866 26.2248 27.9131ZM17.4243 53.3805C18.1321 53.7567 18.9107 55.3087 18.9343 56.3905C18.9579 56.9313 18.8871 57.3781 18.8163 57.3781C18.7456 57.3781 18.4388 56.9548 18.1557 56.4375C17.8726 55.9202 17.2592 55.0266 16.8345 54.4387C16.1502 53.5686 16.1031 53.404 16.4334 53.3099C16.6457 53.2394 16.8581 53.1923 16.9053 53.1688C16.9524 53.1688 17.1884 53.2394 17.4243 53.3805ZM32.5715 53.3805C32.6895 53.3805 32.4299 53.8978 31.9581 54.5092C31.5098 55.1441 30.8492 56.1318 30.5188 56.6962L29.929 57.7309V56.6021C29.929 54.8384 31.1087 52.9572 32.0053 53.2629C32.194 53.3334 32.4299 53.3805 32.5715 53.3805Z" fill="white"/>
</svg>
