<svg width="75" height="299" viewBox="0 0 75 299" fill="none" xmlns="http://www.w3.org/2000/svg">
<path fill-rule="evenodd" clip-rule="evenodd" d="M57.8739 18.5306C57.6207 22.1007 55.3785 25.5494 53.9363 29.0093C53.5277 29.9898 52.1579 30.8422 52.2039 31.7036C52.5188 37.6706 51.7681 44.1473 55.6137 49.1323C60.4228 55.3651 62.4874 61.7956 60.6884 69.4529C60.4639 70.4115 60.9992 71.5946 61.3413 72.6212C64.876 83.2369 69.5799 93.633 71.6388 104.516C72.5843 109.513 72.3364 114.719 71.9776 119.955L71.8677 121.527C71.6456 124.672 71.4225 127.821 71.4324 130.938C71.4497 136.645 72.04 142.352 72.4322 148.056C72.8959 154.772 73.548 161.477 73.8464 168.198C73.9393 170.278 66.6068 176.288 64.626 176.235C61.9316 176.163 58.8154 172.932 58.8105 170.178C58.808 168.823 58.8655 167.469 58.8787 166.114C58.8919 164.766 58.882 163.416 58.882 161.814C57.5434 162.798 56.5214 163.548 54.9789 164.682C53.4471 159.193 54.0317 154.454 56.5962 150.343C59.9287 144.999 59.3975 139.415 58.3475 133.924L57.9904 132.065L57.7534 130.826C56.2206 122.78 54.8916 114.781 56.3331 106.487C56.477 105.659 55.6204 104.663 54.7567 103.665L54.485 103.351C54.1703 102.984 53.8689 102.619 53.6305 102.265C53.2177 102.305 52.8058 102.345 52.393 102.386C50.7954 109 48.8073 115.557 47.7935 122.258C47.3955 124.887 48.6248 128.157 50.0661 130.585C56.3372 141.151 55.9721 150.997 48.5319 161.071C47.9884 161.808 47.6677 162.823 47.5674 163.742C46.1959 176.318 44.9544 188.909 43.5212 201.478C42.8281 207.567 43.1702 213.207 45.978 219.017C51.2 229.826 52.0682 241.169 48.0426 252.763C44.8935 261.835 43.9077 271.269 44.8746 280.812C45.0933 282.979 46.6111 284.991 47.0732 287.169C47.6085 289.691 48.4496 292.625 47.6044 294.793C47.0362 296.251 43.6207 297.69 41.7419 297.412C33.3956 296.178 25.3353 298.153 17.1542 298.715C12.1033 299.062 7.05487 298.604 3.03009 295.123C2.27712 294.471 1.93801 293.355 1.57665 292.263L1.53611 292.142L1.45486 292.074L1.18749 291.859C1.24691 291.827 1.30433 291.796 1.35982 291.766L1.39962 291.744L1.31756 291.517C1.25681 291.355 1.19315 291.197 1.125 291.043C2.43727 290.537 3.78242 289.527 5.05604 289.608C10.8118 289.978 15.6164 287.718 20.3343 285.259L21.0987 284.859C23.2632 283.723 25.4193 282.572 27.6507 281.643C28.9704 281.094 29.8822 277.812 29.7235 275.893C28.8931 265.858 27.4805 255.87 26.6229 245.836C25.9734 238.24 25.9216 230.596 25.4504 222.983C25.3696 221.678 25.0271 220.385 24.6537 219.099L24.4028 218.244C24.3193 217.959 24.2368 217.675 24.1579 217.391C23.8627 216.333 23.168 215.361 22.9912 214.296C21.3434 204.407 19.5485 194.534 18.2626 184.599C17.5851 179.372 17.6476 174.028 17.7026 168.74C17.8317 156.324 18.122 143.908 18.4402 131.494C18.4903 129.543 18.8242 127.547 19.3742 125.671C21.6855 117.781 22.668 109.959 20.8772 101.704C19.8264 96.854 20.4086 91.6665 20.1578 86.6345C20.0986 85.4377 19.7064 84.2433 19.3652 83.0765C16.1865 72.1707 20.0674 62.7218 30.637 55.9129C30.8341 55.7859 31.0344 55.6591 31.2355 55.5314L31.5375 55.3391C33.7521 53.923 35.9222 52.351 34.8723 49.411C34.7035 48.938 34.5505 48.4456 34.3992 47.9462L34.2859 47.5705L34.1718 47.1933L34.0557 46.8157C33.1542 43.9229 31.9549 41.1025 27.7535 40.6987C26.8959 40.6161 25.7645 39.2547 25.4595 38.2751C22.6623 29.2703 22.3194 20.0499 24.2451 10.9C25.6708 4.12346 30.0187 1.26635 37.9597 0.713723C50.1352 -0.133038 58.6797 7.20907 57.8739 18.5306ZM36.7848 1.87488C30.702 2.22493 26.4034 5.32675 25.2539 11.1155C23.5314 19.7841 23.8298 28.4883 26.0819 37.0977C26.6879 39.4119 28.0289 39.9978 30.2177 39.4589C34.8748 38.3124 39.1133 36.6642 40.4511 31.3049C40.4517 36.0823 37.3589 37.9456 33.9318 39.4738L33.5191 39.6558C33.3812 39.716 33.2428 39.7758 33.1043 39.8355L32.4804 40.1031C32.3417 40.1625 32.2031 40.2219 32.0648 40.2815L31.6508 40.4613C33.1991 43.1215 34.6125 45.5532 36.2997 48.4533C37.0454 45.6934 37.6752 43.3646 38.3051 41.0358C38.6677 48.5578 36.298 53.2154 30.4282 57.2863C20.1019 64.4461 17.3844 72.2323 20.9192 84.2206C21.2892 85.4742 21.1823 86.8719 21.2464 88.2049C21.2971 89.2739 21.3203 90.3474 21.3365 91.4221L21.3578 93.0345C21.3965 95.9905 21.458 98.942 21.965 101.818C23.2913 109.345 22.9624 116.548 20.9866 123.979C19.5173 129.503 19.1843 135.393 18.9393 141.143C18.5816 149.5 18.598 157.88 18.746 166.245C18.7646 167.288 18.7759 168.333 18.784 169.377L18.7923 170.631C18.7935 170.84 18.7946 171.049 18.7957 171.258L18.802 172.512C18.803 172.722 18.8041 172.931 18.8052 173.14L18.8175 175.021C18.9046 185.681 19.3657 196.302 24.2796 206.324C24.5682 206.912 24.4621 207.836 24.2294 208.498C23.015 211.952 24.0173 214.953 25.7029 218.01C26.4198 219.309 26.4832 221.03 26.5884 222.576C27.2462 232.265 27.6984 241.969 28.4844 251.648C28.849 256.135 29.331 260.614 29.8304 265.091L30.4316 270.463C30.6306 272.254 30.8259 274.046 31.0111 275.838C31.4338 279.937 29.6652 282.74 25.6946 284.099C23.6082 284.814 21.5901 285.751 19.5764 286.704L18.8214 287.061L18.0661 287.418C13.4055 289.609 8.68385 291.608 3.11231 290.859C2.85518 290.824 2.55524 291.104 1.52061 291.678L1.39962 291.744L1.40669 291.763C1.43581 291.845 1.4644 291.928 1.49266 292.012L1.53611 292.142L1.71634 292.293C3.52723 293.832 4.9414 295.527 6.71611 296.059C9.99102 297.041 13.5414 297.549 16.9709 297.524C25.2918 297.46 33.6168 297.102 41.9204 296.556C43.6676 296.441 46.279 295.377 46.7929 294.091C47.4901 292.345 47.3314 288.927 46.1548 288.066C43.4143 286.059 44.1264 283.629 43.8583 281.208C42.7557 271.254 43.9315 261.505 47.1234 252.067C50.8357 241.091 50.2659 230.251 45.2364 220.101C41.8069 213.18 41.6573 206.419 42.7179 199.295C44.4915 187.38 47.2878 175.579 46.4278 163.387C46.3546 162.342 47.0831 160.898 47.9193 160.189C54.8663 154.305 54.5637 140.28 50.1977 132.92C47.1916 127.852 39.8492 125.218 33.4112 126.944C27.4246 128.549 24.3865 132.657 24.3314 139.228C24.3302 139.377 24.3294 139.526 24.3289 139.681L24.3288 140.706C24.3291 140.9 24.3295 141.109 24.3298 141.337L24.3305 142.088C24.3306 142.179 24.3306 142.273 24.3306 142.369C22.5784 137.901 23.0956 133.57 25.633 130.741C31.6738 124.006 39.0352 124.391 45.8539 127.166C46.8644 121.876 47.7368 116.744 48.8558 111.664C49.1489 110.332 49.5352 109.02 49.9393 107.711L50.5494 105.749C50.8516 104.767 51.1427 103.783 51.3907 102.788C51.6349 101.807 51.764 100.265 51.2008 99.7022C47.3123 95.8145 45.7582 90.8752 44.2604 85.9154L43.9609 84.9234C42.7605 80.957 41.4989 77.0215 39.0097 73.6446C38.8288 73.4007 38.9867 72.9137 38.9867 72.9437C42.1942 76.6103 45.474 80.3612 49.174 84.5917C47.4687 83.527 46.3283 82.8156 44.8014 81.8627C44.3887 89.87 53.3838 103.302 58.9469 104.594C58.2053 106.926 56.7187 109.313 56.8527 111.608C57.2548 118.457 58.2407 125.277 59.0941 132.097C59.2093 133.017 59.3379 133.934 59.4625 134.849L59.5549 135.535C60.2689 140.906 60.6952 146.197 57.3033 151.364C55.1894 154.585 54.6336 158.574 56.4268 162.745C57.5352 159.519 58.6452 156.293 59.9673 152.45C59.9673 156.629 59.8843 160.053 59.9912 163.473C60.0948 166.767 58.7858 170.286 60.5996 173.349C61.1069 173.336 61.6142 173.322 62.1207 173.307C62.383 168.931 62.6445 164.554 62.9068 160.177C64.3736 165.058 62.2959 170.247 64.2511 174.982C64.7732 174.987 65.2953 174.992 65.8183 174.997C66.157 170.303 66.4966 165.608 66.8362 160.914L67.7825 160.947V173.34L69.1631 173.417C69.5265 168.74 69.8907 164.061 70.255 159.383C70.4137 159.398 70.574 159.411 70.7335 159.425C70.9349 162.625 71.1372 165.825 71.3387 169.025C71.8369 168.985 72.3344 168.945 72.8318 168.906C73.0415 162.132 73.0653 155.432 71.6544 148.628C70.5255 143.181 69.4089 137.315 70.2936 131.957C73.1582 114.625 70.0774 98.2299 64.1105 82.0895C62.9758 79.0209 61.5402 76.0609 60.0709 72.6512C58.9798 74.6413 58.1288 76.193 57.2778 77.7455C57.5829 75.0399 58.5909 72.6739 59.3021 70.2243C60.8241 64.9809 61.6011 59.2545 58.0458 54.9356C53.1453 48.9824 51.5609 42.3063 51.2057 35.136C51.0972 32.9377 51.801 30.245 53.1248 28.5167C57.3181 23.0439 58.0598 17.2851 55.4772 11.1439C52.2911 3.56597 47.3988 1.26392 36.7848 1.87488ZM39.7669 275.989C40.0432 279.424 40.4617 282.57 40.4904 285.719C40.5102 287.838 39.2571 289.063 36.6844 288.692C39.7825 287.024 39.6395 284.734 39.2362 282.353L39.1671 281.956L39.0962 281.557C38.7544 279.628 38.4586 277.68 39.7669 275.989ZM36.9574 208.432C37.2205 208.834 37.3356 208.93 37.3487 209.039C37.6456 211.548 37.9325 214.058 38.2351 216.695C37.2418 215.936 36.3719 215.272 35.3384 214.482C35.7635 212.896 36.3242 210.797 36.9574 208.432ZM38.6423 77.3436C38.8199 77.6289 38.9975 77.9141 39.176 78.1993C35.4348 80.9738 31.6946 83.7482 27.9543 86.5227C27.7602 86.2334 27.567 85.9449 27.373 85.6557C31.1289 82.8844 34.8856 80.114 38.6423 77.3436ZM46.3704 44.9332C48.1291 47.7279 47.9326 50.2414 45.3476 52.3863C45.156 52.5451 44.98 52.7226 44.7761 52.8627C44.6555 52.9452 44.535 53.0276 44.4146 53.1102L44.0543 53.3581C38.7819 56.9998 34.0903 60.8899 38.3735 68.6336C34.4301 62.7848 34.9103 59.461 39.7918 55.4103C40.5556 54.7758 41.3047 54.1065 42.1409 53.5774C45.3278 51.5622 47.4582 49.0843 46.3704 44.9332Z" fill="white"/>
</svg>
