<svg width="62" height="308" viewBox="0 0 62 308" fill="none" xmlns="http://www.w3.org/2000/svg">
<path d="M42.3617 0.552643C41.7601 0.865479 41.0621 1.22647 40.8215 1.37085C40.5568 1.51526 39.7385 1.75592 39.0166 1.9003C37.4282 2.21317 36.1287 2.93512 36.1287 3.5127C36.1287 3.75336 36.3453 4.28281 36.61 4.716L37.0672 5.48608L36.0565 5.77487C35.2623 5.99149 34.7088 5.96741 33.2889 5.65457C31.0989 5.17325 29.655 5.17325 28.9812 5.63049C28.2592 6.13586 28.0185 7.50763 28.5239 8.27771C29.0774 9.12003 30.1363 9.04782 32.3985 8.013C34.4441 7.07443 36.2009 6.47278 37.0191 6.47278C37.4042 6.47278 37.6208 6.73752 37.9336 7.53168C38.2946 8.47025 38.2946 8.6387 37.9817 9.28848C37.4764 10.2511 36.971 10.6121 35.9362 10.7805C35.142 10.925 35.0457 11.0212 34.9735 11.7191C34.8773 12.6096 34.8291 12.6096 33.6499 12.1282C32.5429 11.671 30.8824 11.671 29.7994 12.1282C27.8019 12.9465 25.612 16.4841 25.3713 19.2276C25.1307 21.7545 26.1895 22.0674 28.8368 20.2865C32.0856 18.0965 34.1312 17.3264 34.8532 18.0484C35.0457 18.2409 35.0217 18.4816 34.7329 18.9629C33.7943 20.5994 35.3826 20.9844 36.6822 19.4442C37.5486 18.3853 38.0539 18.3612 38.0539 19.3239C38.0539 20.1902 36.8988 21.0566 35.2864 21.3695C31.2674 22.1396 27.9463 25.0274 27.5372 28.1078C27.441 28.7336 27.5372 29.0945 27.7779 29.3112C28.0907 29.5518 28.3795 29.4074 29.6309 28.2523C31.9894 26.0863 34.3478 25.244 35.9843 25.9901C36.4175 26.2067 36.5859 26.4955 36.6581 27.1934C36.7303 28.0838 36.7063 28.1319 36.1046 28.1319C35.5752 28.1319 35.2623 28.4207 34.3719 29.7924C33.3611 31.2845 33.1686 31.453 32.1097 31.7177C29.1978 32.4637 26.5024 34.6297 26.5024 36.2661C26.5024 37.0603 26.5265 37.0844 27.2244 36.94C27.6335 36.8678 29.0534 36.0977 30.401 35.2313C32.7595 33.7152 32.9039 33.667 34.3719 33.667C35.2142 33.667 35.888 33.7633 35.888 33.8836C35.888 34.7259 35.2864 35.5923 34.5163 35.857C34.059 36.0014 33.3371 36.4346 32.8798 36.8196C32.3263 37.301 31.5803 37.6138 30.377 37.8785C27.6576 38.4561 26.3821 39.2503 25.5157 40.9349C24.9863 41.9456 24.9141 43.2933 25.3472 43.7265C26.0933 44.4725 28.2111 43.8709 30.9546 42.09C32.7354 40.959 33.6258 40.6461 33.4093 41.2477C33.313 41.4643 33.2408 41.6809 33.2408 41.729C33.2408 41.7772 32.7595 42.0419 32.1578 42.3066C31.5562 42.5714 30.4492 43.2211 29.6791 43.7506C28.933 44.28 27.2966 45.1704 26.0452 45.6999C23.2535 46.8791 22.6519 47.4085 22.6519 48.6118C22.6519 49.3338 22.8203 49.6467 23.422 50.152C24.0958 50.7296 24.3606 50.8018 25.5398 50.7056C26.6227 50.6334 27.2725 50.3686 28.7886 49.4782C30.738 48.3231 31.6284 48.1305 33.4333 48.4915C34.6847 48.7322 34.1312 49.2857 32.6873 49.2375C31.6043 49.1894 31.0027 49.3819 28.3073 50.6815C23.9996 52.7271 23.5904 52.8233 21.593 52.342C18.6088 51.5719 14.6861 52.4864 12.9534 54.2913C11.2447 56.1203 11.8945 58.6954 14.0845 58.6954C15.9857 58.6954 19.2586 57.3958 21.6411 55.7112C23.9514 54.0748 27.4169 52.7752 27.9945 53.3528C28.2833 53.6416 24.9622 55.9037 22.7963 56.9145C17.8387 59.2007 12.4962 60.4762 11.6298 59.6099C11.1244 59.1045 10.5468 59.9709 10.4265 61.4148C10.258 63.6529 10.9319 64.2064 12.7609 63.2679C14.9027 62.1849 20.1491 61.2463 21.0876 61.7758C21.4486 61.9683 21.3523 62.0405 20.5822 62.1608C19.403 62.4015 18.1516 63.1475 17.9591 63.7732C17.8628 64.0379 17.8628 64.6637 17.9591 65.1931C18.2719 67.0221 17.6222 67.5997 15.1915 67.5997C14.4214 67.5997 13.4829 67.72 13.0978 67.8644C12.7368 68.0088 11.4132 68.2254 10.1859 68.3457C7.63489 68.5623 6.74445 68.8992 6.4316 69.7897C5.92622 71.2336 7.00918 73.3754 8.26059 73.3754C8.57345 73.3754 9.60827 72.9904 10.595 72.5331C11.5576 72.0759 12.3999 71.6908 12.4962 71.6908C12.5684 71.6908 12.3518 72.0037 11.9908 72.3647C10.8356 73.568 10.6912 75.1804 11.6539 75.9745C11.8464 76.143 12.424 76.4077 12.9293 76.6003C13.4347 76.7928 13.6754 76.9612 13.4588 76.9612C12.3999 77.0094 9.84893 78.3089 8.47719 79.4881C7.68302 80.186 6.47973 81.0043 5.82996 81.3171C4.8914 81.7503 4.55447 82.0632 4.26569 82.7851C3.37526 84.9751 3.56778 86.6116 4.69887 86.6116C5.34864 86.6116 6.93698 85.5046 7.70708 84.566C7.99587 84.181 8.23653 83.9403 8.28466 83.9884C9.7286 86.4913 10.3784 87.9352 10.3784 88.7775C10.3784 89.9086 9.99332 90.3658 8.76597 90.6787C5.97435 91.4247 1.73879 96.286 1.71472 98.7888C1.71472 99.6552 2.34043 100.329 3.1346 100.329C3.54372 100.329 3.66404 100.425 3.54372 100.714C2.65328 103.024 1.64252 107.862 1.88318 108.704C1.95538 109.017 1.76285 109.498 1.40187 110.003C-0.162403 112.097 -0.427126 113.95 0.655831 115.226C1.95538 116.766 3.56778 115.948 4.33788 113.373C4.84326 111.688 5.42084 110.677 5.85402 110.677C6.28721 110.677 5.90215 114.865 5.25238 117.416C4.69887 119.533 4.55447 119.798 3.32712 121.05C0.367042 124.082 -0.354929 129.689 2.2201 129.689C3.03834 129.689 4.24162 128.366 4.60261 127.09C4.96359 125.742 5.80589 124.611 6.88885 123.986C8.30873 123.191 8.57345 123.552 8.57345 126.392C8.57345 129.112 7.97181 131.229 7.03324 131.807C6.69632 131.999 6.14281 132.433 5.80589 132.721C5.46897 133.01 4.98766 133.299 4.72294 133.347C4.33788 133.419 4.24162 133.636 4.21756 134.502C4.21756 135.104 3.95283 136.5 3.63998 137.631C2.84581 140.423 2.79768 143.647 3.54372 144.393C4.50634 145.332 5.44491 144.273 6.4316 141.193C6.96105 139.436 7.70708 138.666 8.45312 139.075C8.74191 139.219 9.24729 139.291 9.56014 139.219C10.0655 139.075 10.1377 139.147 10.1377 139.725C10.1377 141.361 8.86224 146.006 7.82741 148.099C6.45567 150.891 6.09468 152.528 6.5038 154.308C6.81665 155.704 7.53862 156.883 8.06807 156.883C8.71784 156.883 9.36762 155.656 9.77673 153.683C9.873 153.177 9.99332 153.057 10.2099 153.201C10.3784 153.322 11.0281 153.635 11.6779 153.851C12.5684 154.188 12.9053 154.477 13.17 155.103C13.6513 156.258 13.6032 156.715 12.8812 157.389C11.3891 158.785 10.4024 161.673 10.3784 164.633C10.3784 167.135 11.1966 167.881 12.5443 166.558L13.2181 165.884L14.8546 166.438C16.9964 167.159 17.8387 167.93 18.3201 169.686C18.5126 170.264 18.4163 170.505 17.5981 171.443C16.2985 172.959 15.8413 174.307 15.9616 176.353C16.0098 177.556 16.1782 178.158 16.4911 178.519C17.3093 179.433 18.296 179.12 19.2827 177.628C19.6196 177.147 19.7159 177.123 20.6063 177.363C21.8818 177.724 23.3257 177.484 25.0344 176.641C26.6227 175.823 27.0559 175.943 27.3688 177.195C27.5132 177.821 27.4891 177.869 27.08 177.7C25.3954 177.002 23.9033 177.532 22.0984 179.481C19.7159 182.08 19.1142 184.342 20.2694 186.581C20.5822 187.23 21.1357 187.976 21.4727 188.241C22.0502 188.65 22.1706 188.674 22.8203 188.337C23.2054 188.121 24.144 187.254 24.9141 186.388C25.6842 185.522 26.3821 184.8 26.4783 184.8C26.8153 184.8 28.0907 186.845 28.3795 187.832C28.548 188.385 28.8368 188.963 29.0293 189.131C29.4143 189.444 28.9812 189.829 26.1414 191.682C22.9647 193.752 21.9058 195.918 23.2776 197.53C24.3605 198.83 25.8286 198.373 27.5854 196.255C28.0667 195.653 28.6442 195.148 28.8368 195.148C29.3181 195.148 32.2782 198.036 32.2782 198.493C32.2782 198.71 32.4466 199.143 32.6632 199.432C32.8798 199.744 33.0001 200.033 32.9279 200.105C32.6873 200.37 30.016 201.188 28.0185 201.622C22.5316 202.801 21.2079 204.75 23.9033 207.518C24.7697 208.384 25.4916 208.913 26.1414 209.082C27.5132 209.443 29.7272 209.419 30.762 208.986C31.845 208.528 31.7969 208.528 31.7969 209.226C31.7969 209.756 31.7006 209.828 30.9064 209.828C28.4999 209.852 25.1307 211.152 23.9996 212.475C23.1091 213.558 23.2054 214.352 24.4087 215.989C27.1281 219.671 29.9679 220.802 32.4226 219.117C33.4574 218.419 34.5885 218.299 35.6233 218.829C36.5859 219.334 38.0539 221.043 38.0539 221.692V222.222L32.6392 222.15C26.4783 222.053 24.8659 222.27 24.0958 223.233C23.3979 224.123 23.4942 225.11 24.4327 227.035C26.4061 231.102 29.1737 231.848 32.4226 229.201C33.0723 228.647 33.698 228.359 34.1553 228.359C35.2383 228.359 35.4067 228.744 35.0698 230.284C34.781 231.559 34.7569 231.607 33.2167 232.378C31.9653 233.003 31.1711 233.22 29.1496 233.436C25.6842 233.797 25.6601 233.821 25.6601 237.455C25.6601 239.838 25.7323 240.391 26.1414 241.089C27.1281 242.774 28.5961 242.581 31.9412 240.343C32.9279 239.694 33.8184 239.212 33.9387 239.284C34.035 239.357 33.9387 240.151 33.698 241.041C33.4333 241.932 33.2408 243.111 33.2408 243.64C33.2408 244.579 33.2167 244.603 31.845 245.156C29.6069 246.095 28.187 246.408 26.3821 246.408C24.3846 246.408 23.8311 246.697 23.0851 248.165C22.339 249.633 21.9299 251.365 21.9299 253.074C21.9299 254.301 22.0262 254.686 22.5075 255.216C23.0369 255.842 23.1332 255.866 23.9996 255.601C24.529 255.457 25.8526 254.59 26.9596 253.676L28.9812 252.015L29.7753 252.521C30.2085 252.809 30.5695 253.122 30.5936 253.243C30.6176 253.796 27.826 256.13 26.3339 256.828C24.9863 257.454 24.3365 257.574 22.2909 257.695C20.7507 257.791 19.6918 257.959 19.4511 258.176C19.1383 258.417 19.042 258.922 19.042 260.486C19.042 262.412 19.018 262.508 18.3201 263.085C17.935 263.422 16.828 263.976 15.8654 264.337C10.595 266.334 9.89706 267.104 9.6564 271.196C9.48794 273.939 9.27135 274.541 7.73115 276.61C6.4316 278.319 6.40753 278.608 7.15357 281.111C7.68302 282.964 7.80335 283.854 7.82741 286.357C7.87554 290.159 8.1162 290.809 11.3891 295.791C12.7609 297.884 14.5658 300.676 15.4322 302.024C17.55 305.345 19.018 306.861 20.7988 307.511C23.6386 308.545 24.8659 307.896 23.6386 305.97C23.3739 305.561 22.1224 304.045 20.847 302.601C16.5151 297.644 15.36 295.454 15.384 292.133C15.4322 287.127 17.55 282.891 20.8951 281.135C21.6652 280.726 23.807 279.931 25.6601 279.378C34.396 276.779 39.0406 274.829 41.3269 272.832C42.7467 271.581 42.9393 270.979 42.7467 268.284L42.5783 265.901H44.6479H46.7176L47.8487 264.65C48.4985 263.952 49.6536 262.724 50.4237 261.882C51.2179 261.04 51.7714 260.294 51.6992 260.222C51.6029 260.125 51.7714 259.788 52.012 259.451C52.2768 259.139 52.4934 258.705 52.4934 258.537C52.4934 258.369 53.0709 257.43 53.7929 256.419C54.4908 255.432 55.1406 254.35 55.2369 254.013C55.309 253.676 55.7182 252.882 56.1273 252.208C56.753 251.197 56.8733 250.836 56.753 250.018C56.6567 249.199 56.8011 248.694 57.6916 246.889C58.2691 245.71 58.943 244.434 59.2077 244.073C59.4965 243.64 59.7131 242.798 59.8093 241.715C59.9056 240.776 60.1944 238.803 60.435 237.287C61.0126 233.99 61.0126 233.509 60.5313 232.57C59.9778 231.511 60.3628 227.637 61.0367 227.637C61.879 227.637 61.9993 226.939 61.903 222.487C61.8309 217.89 61.6143 216.735 60.7238 216.47C60.2906 216.326 60.2185 216.037 60.1222 213.847C60.05 212.499 60.0019 210.237 60.0019 208.841C60.0019 206.603 59.9297 206.146 59.4002 205.111C59.0874 204.461 58.7504 203.547 58.6782 203.09C58.4617 201.742 58.0525 200.876 57.5472 200.755C57.2343 200.659 56.9455 200.202 56.6567 199.335C56.3198 198.228 56.2957 197.964 56.5845 197.434C56.8733 196.905 56.8733 196.664 56.6086 196.038C56.4401 195.605 55.8866 194.017 55.3572 192.501C54.8277 190.985 54.2742 189.541 54.1298 189.252C53.6966 188.41 52.6618 187.447 52.2046 187.447C51.6751 187.447 50.3274 184.679 50.3274 183.596C50.3274 182.971 50.0146 182.225 48.0412 177.893C47.5599 176.882 46.9823 175.992 46.5973 175.751C45.6828 175.149 44.7201 173.128 44.8645 172.141C44.9608 171.564 44.7923 170.914 44.1666 169.638C43.0596 167.328 41.7119 165.306 41.0381 165.018C40.7012 164.849 40.1717 164.007 39.5219 162.563C38.9684 161.36 38.5353 160.229 38.5353 160.06C38.5353 159.892 38.439 159.579 38.3187 159.338C38.1743 159.122 37.8855 158.351 37.6689 157.629C37.4042 156.715 36.9469 155.993 36.2009 155.247C35.0457 154.092 33.6018 151.108 33.8184 150.313C34.035 149.471 31.2915 142.035 30.6176 141.602C30.2085 141.361 29.0534 137.318 29.0293 136.067C29.0293 135.369 28.7886 134.382 28.4758 133.732C28.187 133.107 27.9463 132.457 27.9463 132.288C27.9463 132.096 27.7779 131.711 27.5613 131.398C27.2725 131.013 27.2484 130.796 27.4169 130.676C27.6094 130.556 27.5854 130.098 27.3688 129.088C27.1762 128.293 26.9596 126.176 26.8874 124.395C26.6709 120.135 26.5746 119.606 25.9008 119.341C25.3954 119.148 25.3472 118.908 25.1788 116.886C25.0825 115.659 24.9141 114.528 24.8178 114.407C24.7215 114.263 24.5771 112.699 24.529 110.87C24.4568 108.343 24.3365 107.452 24.0236 106.971C23.4461 106.105 23.4942 105.431 24.144 105.335C24.4809 105.287 24.7215 105.022 24.8419 104.613C25.1066 103.602 25.1066 97.9947 24.8419 97.4893C24.529 96.9117 24.9381 95.2752 25.3954 95.2752C25.8526 95.2752 26.4543 94.5292 26.7912 93.5666C26.9356 93.1093 27.3206 92.5077 27.6576 92.1948C28.1389 91.7376 28.2111 91.4969 28.0667 90.8712C27.4891 88.3684 27.5132 87.8149 28.2351 86.5153C28.6202 85.8415 29.1978 84.927 29.5106 84.5179C30.0641 83.7237 30.5936 81.4375 30.5936 79.8251C30.5936 79.2475 30.9305 78.357 31.6043 77.1778C32.1578 76.2152 32.9039 74.7231 33.313 73.8568C33.7221 72.9423 34.42 71.9074 34.9735 71.4021C35.5992 70.8004 35.888 70.3672 35.7918 70.1266C35.7196 69.8859 36.0084 69.188 36.4897 68.4179C36.971 67.6959 37.6689 66.0835 38.0539 64.8562C38.7278 62.7384 39.3054 61.8239 39.9311 61.8239C40.4364 61.8239 40.2439 61.4629 39.5219 61.0297L38.8 60.6206L39.4497 59.5377C39.8107 58.9601 40.292 58.4306 40.5327 58.3825C41.0621 58.2141 41.8804 56.4091 41.9044 55.3502C41.9044 54.8208 42.2654 53.9544 42.9874 52.7993C43.5891 51.8366 44.0704 50.9462 44.0463 50.8499C44.0222 50.7296 44.1185 50.3205 44.2629 49.9595C44.4314 49.5745 44.5517 48.4193 44.5517 47.3845C44.5517 45.6036 44.4795 45.363 43.3484 43.1008C42.1932 40.7664 40.6771 38.9615 39.8829 38.9615C39.7145 38.9615 39.2572 39.3947 38.8962 39.9241C38.5353 40.4536 38.1743 40.8386 38.1261 40.7905C38.078 40.7423 38.1021 40.3092 38.1743 39.8279C38.3427 38.9615 39.4497 37.5175 39.9551 37.5175C40.0995 37.5175 40.4364 37.9507 40.7012 38.4802C40.99 39.0337 41.4472 39.5631 41.736 39.6594C42.6024 39.9963 43.2281 40.8867 44.0704 42.9805C44.5035 44.0875 44.9127 44.9779 45.0089 44.9779C45.0811 44.9779 45.5143 44.3763 45.9475 43.6543L46.7417 42.3307L46.6935 39.3706C46.6213 36.6753 46.6695 36.3143 47.1508 35.5682C47.5599 34.8944 47.6562 34.3409 47.6802 32.8007C47.6802 31.7658 47.6802 28.0357 47.6802 24.5461C47.7043 19.2036 47.7765 18.0724 48.0893 17.4467C48.6669 16.3397 48.5947 13.7647 47.9449 12.4411C47.608 11.7432 47.4396 10.925 47.4396 10.0104C47.4396 8.99969 47.3433 8.59058 47.0786 8.49432C46.8139 8.39804 46.7176 7.98892 46.7176 7.14664C46.7176 6.20807 46.862 5.77487 47.3192 5.22137C48.0412 4.35501 48.0412 4.25876 47.4155 2.86295C46.862 1.61151 46.14 0.793274 45.2255 0.311981C44.311 -0.169342 43.565 -0.0971375 42.3617 0.552643ZM41.8804 17.2061C41.9044 17.2302 41.9044 17.3745 41.8804 17.519C41.8323 17.6393 41.3991 17.543 40.9418 17.2783L40.0995 16.797L40.9418 16.9654C41.3991 17.0376 41.8323 17.158 41.8804 17.2061ZM42.3858 24.0407C42.3858 24.3536 42.2414 24.4258 41.7601 24.3295C41.3509 24.2574 40.9659 24.4017 40.5327 24.7868L39.907 25.3644L40.0755 24.4017C40.1717 23.8723 40.3642 23.054 40.5086 22.5968L40.7734 21.7786L41.5675 22.7171C42.0248 23.2225 42.3858 23.8242 42.3858 24.0407ZM42.3136 28.6614C42.2414 28.8539 42.1692 28.7817 42.1692 28.517C42.1451 28.2523 42.2173 28.1078 42.2895 28.2041C42.3617 28.2763 42.3858 28.4929 42.3136 28.6614ZM40.8696 31.2605C41.2065 31.5252 41.6638 31.7418 41.8804 31.7418C42.1451 31.7418 42.3858 32.0787 42.5302 32.7044C42.8671 33.8836 42.6986 34.0761 42.097 33.3061C41.2306 32.199 40.7493 32.1028 39.9311 32.8729L39.2091 33.5467L39.3776 32.3434C39.6182 30.5626 39.8107 30.4182 40.8696 31.2605ZM38.5834 46.109C38.824 46.3256 39.0166 46.7828 39.0166 47.1198C39.0166 47.4807 39.161 47.9861 39.3535 48.2509C39.6423 48.66 41.3991 52.7993 41.8323 54.1229C41.9044 54.3154 41.7119 54.171 41.3991 53.81C41.0862 53.4491 40.292 52.8474 39.6182 52.4864C38.6074 51.9329 38.3909 51.7163 38.3427 51.0906C38.2946 50.513 38.4149 50.2242 38.8962 49.8392C40.2199 48.7803 38.9203 47.7455 37.2116 48.4434C36.7063 48.66 36.249 48.7803 36.2009 48.7322C36.1287 48.66 36.249 48.3231 36.4656 47.938C36.6581 47.577 37.0191 46.9032 37.2357 46.47C37.717 45.6036 37.9577 45.5314 38.5834 46.109ZM35.7677 53.1843C35.3826 53.8822 35.4067 53.9785 36.2249 55.8797C37.332 58.5028 37.8133 59.7061 37.8133 59.8024C37.8133 59.9709 36.5378 59.1286 35.3826 58.19C34.5403 57.5161 34.1553 57.3236 33.6499 57.4199C33.2889 57.4921 33.0001 57.468 33.0001 57.3477C33.0001 57.2514 33.4574 56.0963 34.0109 54.7967C34.8773 52.7993 35.1179 52.4383 35.5992 52.4383C36.1287 52.4383 36.1287 52.4624 35.7677 53.1843ZM27.3447 60.3559C27.4891 60.5966 26.7431 61.1019 26.2617 61.1019C26.0692 61.1019 26.0692 60.9576 26.2617 60.6206C26.5265 60.1152 27.104 59.9709 27.3447 60.3559ZM30.4492 60.8372C30.5214 60.9576 30.4251 61.3426 30.2566 61.7276C29.7994 62.5459 30.0401 63.0513 31.3155 63.9417C32.1097 64.4952 34.2034 67.5997 33.7943 67.5997C33.7221 67.5997 32.8798 67.1665 31.9172 66.6371C30.9546 66.1076 29.9438 65.6744 29.6791 65.6744C29.1256 65.6744 27.9463 64.3989 27.9463 63.7973C27.9463 62.6903 28.4758 61.6073 29.2218 61.1501C30.1123 60.5725 30.2807 60.5484 30.4492 60.8372ZM25.2269 69.3565C25.7082 69.7897 25.7323 69.8859 25.4435 70.4635C24.6012 72.1481 24.9863 73.3995 26.5024 73.7364C27.0078 73.8568 27.5372 74.3381 28.4277 75.5654L29.6309 77.226L27.9945 76.3355C27.104 75.8542 26.1895 75.2526 25.9489 75.0119C25.5879 74.6509 25.275 74.6028 23.7108 74.7472L21.8818 74.8916L22.0502 74.0733C22.5556 71.5946 23.1573 69.4768 23.5182 68.9233C23.9514 68.2735 23.9996 68.2735 25.2269 69.3565ZM21.1598 72.0759C21.0635 72.7016 20.2453 72.7738 19.1383 72.2684L18.1997 71.8593L19.3308 71.6908C19.9565 71.6187 20.5341 71.4743 20.6304 71.378C20.9192 71.1133 21.2561 71.5946 21.1598 72.0759ZM21.7374 79.0549C21.8096 79.1272 21.7133 79.7047 21.4967 80.3304C20.9432 82.0872 21.1839 82.6167 22.9407 83.5071C24.3124 84.205 25.275 84.9992 25.2991 85.5046C25.2991 85.6249 25.0585 85.5286 24.7697 85.312C23.807 84.6382 21.954 83.7237 21.5208 83.7237C21.2801 83.7237 20.5341 83.3387 19.8362 82.8573C18.4404 81.8947 18.4404 82.1113 19.6918 79.9213C20.1731 79.1272 20.4378 78.9106 20.9432 78.9106C21.3042 78.9106 21.6652 78.9828 21.7374 79.0549ZM18.2479 80.162C18.0553 80.7395 17.9591 80.8358 17.8869 80.523C17.7665 79.9695 17.9831 79.3919 18.296 79.3919C18.4404 79.3919 18.4163 79.7047 18.2479 80.162ZM13.3866 83.2183C14.5899 84.4697 13.9642 84.566 12.4962 83.3387C11.9426 82.8573 11.1966 82.352 10.9078 82.2076C10.3784 81.9669 10.3784 81.9188 10.7875 81.7744C11.3651 81.5578 12.2314 82.0391 13.3866 83.2183ZM17.2612 88.224C17.7425 89.2347 18.1035 91.3766 17.7906 91.4729C17.6943 91.521 18.8736 92.5077 20.4138 93.711C24.1199 96.5748 24.0958 96.5507 23.4942 96.3582C21.7615 95.7565 20.2934 95.4678 18.0072 95.2993C14.3973 95.0346 14.4214 95.1068 15.384 91.4729C16.1541 88.5609 16.5392 87.3336 16.7317 87.3336C16.7799 87.3336 17.0205 87.7427 17.2612 88.224ZM13.7476 100.979C13.7476 101.749 13.892 102.567 14.0845 102.784C14.4936 103.361 15.6247 103.746 16.3707 103.578C16.828 103.506 17.7425 103.867 19.8843 105.022L22.7722 106.586L20.486 106.466C19.2346 106.394 17.7425 106.201 17.213 106.081C16.3948 105.864 16.0819 105.888 15.4562 106.225C15.0231 106.442 14.638 106.755 14.5658 106.923C14.4695 107.212 14.2289 107.212 13.2181 106.947C12.5684 106.755 11.9667 106.562 11.9186 106.514C11.7501 106.345 13.3385 99.6071 13.555 99.6071C13.6513 99.6071 13.7476 100.233 13.7476 100.979ZM12.4962 112.001C13.1459 112.603 13.7476 113.373 13.8438 113.734C14.1326 115.033 14.7583 115.418 19.5474 117.175C22.1224 118.138 24.3846 119.004 24.5771 119.1C24.7937 119.221 23.3498 119.317 21.0876 119.317C18.9698 119.317 16.8761 119.413 16.4189 119.558C15.8172 119.75 15.2396 119.726 14.1326 119.461C13.3144 119.269 12.1833 119.028 11.5817 118.908L10.4987 118.715L10.3062 117.295C9.94519 114.648 10.4024 110.918 11.0763 110.918C11.1966 110.918 11.8223 111.399 12.4962 112.001ZM12.4721 124.178C13.555 124.852 16.2263 128.029 15.9376 128.317C15.8172 128.438 15.8172 128.847 15.9376 129.28C16.0579 129.689 16.1301 130.05 16.0819 130.074C16.0579 130.098 12.5443 130.339 12.5443 130.291C12.5443 130.291 12.2796 128.943 11.9426 127.283C11.1244 123.191 11.1003 123.336 12.4721 124.178ZM16.2504 137.27C16.7558 137.727 17.3574 138.16 17.6222 138.233C17.8628 138.329 18.0794 138.473 18.0794 138.594C18.0794 138.714 18.4163 139.195 18.8254 139.676C19.3549 140.278 19.4752 140.519 19.2105 140.519C18.9939 140.519 18.7532 140.615 18.681 140.759C18.5607 140.952 19.2105 143.479 19.6918 144.754C19.8843 145.26 18.5848 145.188 17.0205 144.586C15.7691 144.129 15.6728 144.032 15.2156 142.829C14.5658 141.096 14.0604 139.171 13.8679 137.823C13.7476 136.885 13.7957 136.692 14.1567 136.596C15.0712 136.355 15.36 136.452 16.2504 137.27ZM19.1624 150.386C19.8603 151.06 23.5423 152.792 24.2884 152.792C24.8419 152.792 24.3605 153.225 23.5904 153.394C22.7722 153.586 22.7722 153.442 23.8311 156.161C24.2162 157.148 24.6253 157.942 24.7456 157.918C24.8419 157.894 25.1307 157.798 25.3713 157.702C25.7804 157.557 25.8045 157.581 25.5157 158.063C24.7697 159.242 22.315 158.351 21.4245 156.571C20.125 154.044 18.1275 149.664 18.2719 149.664C18.3441 149.664 18.7532 150.001 19.1624 150.386ZM26.7671 163.766C27.8741 163.935 28.4999 164.272 28.3073 164.584C28.2351 164.681 28.6683 165.812 29.27 167.087C29.9919 168.676 30.2566 169.446 30.0401 169.518C29.2218 169.759 28.2111 169.831 27.4891 169.686C26.6949 169.518 26.6468 169.422 25.5157 166.389C24.8659 164.657 24.3365 163.189 24.3365 163.068C24.3365 162.972 24.6493 163.044 25.0344 163.237C25.4194 163.453 26.1895 163.67 26.7671 163.766ZM29.4384 174.259C30.762 176.184 31.7728 176.858 33.2167 176.858H34.3478L35.0457 178.47C35.4548 179.361 35.8158 180.179 35.8399 180.275C35.888 180.372 35.3104 180.468 34.5644 180.468C33.2889 180.468 33.1445 180.396 32.0134 179.337C31.3396 178.711 30.4492 177.604 30.016 176.858C28.933 175.029 27.9223 172.767 28.187 172.767C28.3073 172.767 28.8608 173.441 29.4384 174.259ZM38.0299 186.845C38.3427 187.327 38.8962 187.88 39.2572 188.097C39.7145 188.361 40.2439 189.18 40.9659 190.768C41.9285 192.91 41.9766 193.078 41.6397 193.68C40.99 194.811 40.5568 194.594 40.0033 192.862C39.4497 191.177 38.6556 189.733 37.9336 189.131C37.693 188.939 37.1876 188.361 36.8266 187.832C36.2971 187.11 36.2009 186.821 36.3934 186.46C36.7544 185.762 37.3801 185.907 38.0299 186.845ZM42.5783 199.456C43.0596 199.696 43.6853 200.154 43.95 200.442C44.2148 200.731 44.7201 201.116 45.0571 201.309C45.4902 201.525 45.779 201.958 45.9956 202.729C46.2603 203.691 46.2603 203.956 45.9234 204.678C45.5865 205.376 45.394 205.496 44.7201 205.496C44.0222 205.496 42.3858 205.087 42.3858 204.919C42.3858 204.87 42.1692 203.667 41.9044 202.223C41.2306 198.541 41.1825 198.758 42.5783 199.456ZM45.6106 209.828C46.0197 209.972 46.4769 210.55 46.9342 211.489C47.3433 212.259 47.9209 213.125 48.2578 213.366C48.715 213.751 48.8594 214.088 48.9076 215.122C48.9798 216.35 48.9557 216.422 48.2097 216.759C47.8005 216.975 47.3914 217.336 47.2952 217.577C47.223 217.818 47.0064 218.01 46.7898 218.01C45.9956 218.01 44.5035 216.903 43.8056 215.796L43.0596 214.641L43.4447 213.125C43.6612 212.283 43.8297 211.152 43.8297 210.598C43.8297 209.684 43.8778 209.587 44.4073 209.587C44.7442 209.587 45.2736 209.684 45.6106 209.828ZM46.8861 223.353C47.0304 223.521 47.2711 224.195 47.4396 224.845C47.608 225.471 48.0171 226.313 48.3541 226.698C48.8835 227.348 48.9316 227.54 48.7632 229.008C48.6188 230.38 48.4985 230.693 47.7765 231.391C46.9823 232.185 46.9342 232.209 46.1641 231.872C44.3832 231.126 42.7467 228.359 42.5302 225.639L42.3858 223.786H43.4206C43.9741 223.762 44.6961 223.618 45.033 223.425C45.779 222.992 46.5973 222.968 46.8861 223.353ZM45.0811 236.95C45.755 237.696 46.4769 238.972 46.4769 239.477C46.4769 239.669 46.6935 240.223 46.9582 240.728C47.4155 241.643 47.4155 241.667 46.9342 242.581C46.5491 243.376 46.3566 243.52 45.6828 243.52C45.2496 243.52 44.672 243.688 44.4073 243.881C43.95 244.194 43.8538 244.17 43.3003 243.568C42.2895 242.485 42.1451 241.98 42.1451 239.453C42.1451 237.239 42.1932 237.022 42.6746 236.685C43.4928 236.108 44.3832 236.204 45.0811 236.95ZM41.1584 249.103C41.2547 249.416 41.4231 249.97 41.5194 250.355C41.6638 250.98 41.6397 251.028 41.3028 250.74C40.99 250.475 40.7012 250.692 39.1369 252.328L37.356 254.229L36.8747 253.628C36.0084 252.545 36.0806 252.28 37.5486 251.365C38.2946 250.908 39.3294 250.09 39.8589 249.56C40.3642 249.007 40.8456 248.574 40.8696 248.574C40.9178 248.574 41.0381 248.814 41.1584 249.103Z" fill="white"/>
</svg>
