<svg width="137" height="308" viewBox="0 0 137 308" fill="none" xmlns="http://www.w3.org/2000/svg">
<mask id="mask0" mask-type="alpha" maskUnits="userSpaceOnUse" x="0" y="0" width="137" height="308">
<path d="M0 0H136.371V307.268H0V0Z" fill="white"/>
</mask>
<g mask="url(#mask0)">
<path fill-rule="evenodd" clip-rule="evenodd" d="M70.2996 172.353C69.7508 172.376 69.202 172.401 68.6532 172.424C66.3356 178.264 65.8727 184.287 65.9902 190.632C66.1613 199.885 65.3457 209.154 65.0093 218.418C64.9364 220.425 64.7207 222.548 65.2371 224.437C67.862 234.027 68.7254 243.689 67.5183 253.585C66.7976 259.5 66.8147 265.441 69.4598 271.159C70.2307 265.371 70.2145 259.586 70.3848 253.805C70.6263 245.634 69.5725 237.07 71.7077 229.404C74.1065 220.795 70.8995 212.703 72.169 204.376C72.8929 199.628 72.0693 194.623 71.7523 189.746C71.3746 183.941 70.7925 178.15 70.2996 172.353ZM133.618 163.517C134.016 163.224 134.413 162.933 134.811 162.64C133.55 157.713 132.454 152.317 127.606 149.722C123.705 147.633 122.262 144.669 121.423 140.891C120.705 137.657 119.837 134.438 119.395 131.165C118.346 123.384 115.911 116.136 111.77 109.45C111.341 108.758 111.053 107.891 110.981 107.08C109.991 96.1249 109.074 85.163 108.088 74.2076C107.504 67.7073 104.729 62.5327 98.9594 59.059C92.4572 55.1439 85.9606 51.203 79.6821 46.9492C77.9141 45.7511 76.1679 43.583 75.7229 41.5709C74.7461 37.149 75.0444 32.8127 77.131 28.3479C79.9537 22.3108 81.4023 15.724 78.4037 9.12097C75.971 3.76533 71.5675 0.906832 65.8289 1.02324C60.3108 1.13399 55.2223 3.09274 53.0555 8.7669C50.7581 14.783 50.6859 21.2421 54.496 26.4482C58.3725 31.7464 59.3534 37.0536 57.7191 43.0131C57.2279 44.8045 56.003 46.9225 54.4806 47.8093C49.7115 50.5886 44.7196 53.03 39.6692 55.2797C29.3618 59.8714 24.2166 66.5375 25.5298 77.7686C26.7417 88.1242 23.8161 98.0546 24.3503 108.225C24.386 108.903 24.0674 109.658 23.7432 110.29C20.6424 116.32 19.8431 122.836 19.1127 129.477C18.5031 135.027 17.0407 140.505 15.6188 145.927C15.2897 147.185 13.7803 148.606 12.4946 149.065C5.37137 151.611 3.28233 157.486 1.61887 163.73C1.96988 164.023 2.32089 164.317 2.67191 164.609C4.94092 162.115 7.20993 159.621 9.40436 157.208C7.52446 163.874 5.73535 170.215 3.94706 176.558C4.54694 176.778 5.14763 176.999 5.74751 177.219C7.16534 173.858 8.58317 170.498 10.001 167.138C10.0026 169.319 9.35572 171.261 8.80853 173.23C8.26702 175.18 7.8244 177.157 7.33882 179.123C7.76198 179.242 8.18595 179.361 8.60911 179.48C12.6024 176.848 11.7504 171.818 14.0996 168.243C13.4576 171.831 12.8148 175.418 12.1727 179.005C12.8204 179.169 13.4682 179.333 14.1159 179.498C15.4551 175.695 16.7951 171.893 18.1343 168.09C18.2623 168.124 18.3904 168.157 18.5185 168.191C18.0889 170.868 17.6592 173.545 17.2304 176.222C17.536 176.338 17.8424 176.454 18.148 176.57C18.8071 175.514 19.7377 174.536 20.0733 173.386C20.9626 170.34 22.1543 167.231 22.2199 164.125C22.4023 155.612 24.7897 147.943 28.3785 140.208C31.8505 132.724 33.8706 124.519 36.0391 116.5C37.6993 110.362 38.7102 104.038 39.7697 97.7563C40.1199 95.686 39.9278 93.4564 39.597 91.361C39.2955 89.4427 38.4516 87.6133 37.8866 85.7337C37.3718 84.0216 36.9106 82.2948 36.4258 80.5745C41.9755 95.1476 47.5033 109.712 46.4803 125.663C56.4481 124.398 61.9394 126.876 62.6049 133.413C59.4839 127.284 54.9265 125.058 48.6463 126.449C46.4843 126.928 45.334 127.879 45.0568 130.312C44.0986 138.726 42.5511 147.082 41.8263 155.512C40.6776 168.892 40.993 182.118 44.8663 195.286C47.0153 202.591 48.0902 210.601 47.6614 218.18C47.0088 229.709 47.98 240.688 52.2991 251.39C57.2927 263.763 59.6939 276.348 55.0327 289.428C54.83 289.998 54.8065 290.634 54.7206 291.241C53.6416 298.867 55.6325 302.257 62.5822 305.493C65.5265 306.863 66.9306 305.745 67.2143 303.074C67.5605 299.812 67.451 296.496 67.4453 293.204C67.434 285.873 67.404 278.543 67.3075 271.214C67.2151 264.26 67.01 257.307 66.8965 250.353C66.8601 248.144 67.0287 245.933 66.9792 243.726C66.7766 234.685 65.319 225.978 61.1904 217.733C59.2918 213.945 55.9835 212.15 52.1346 214.137V209.317C53.4989 213.306 56.9231 212.223 59.8195 213.024C59.6161 209.942 59.4385 207.251 59.261 204.563C59.4466 204.543 59.6323 204.524 59.8179 204.505C60.7153 209.466 61.6119 214.426 62.5093 219.387L63.6442 219.236C63.9263 217.929 64.4143 216.63 64.4573 215.316C64.7305 206.998 64.6826 198.664 65.1877 190.362C65.5484 184.426 66.6169 178.533 67.3473 172.618C67.7858 169.068 68.1814 165.513 68.65 161.499C58.2088 166.239 51.3604 165.317 46.6902 158.488C48.2086 159.554 49.0784 160.435 50.1339 160.853C52.9493 161.967 55.7963 163.524 58.7187 163.744C64.8123 164.203 68.2146 160.548 68.0509 154.543C67.9504 150.859 67.7364 147.178 67.6383 143.494C67.6204 142.841 67.9179 142.179 68.0704 141.521C68.3889 141.562 68.7083 141.601 69.0269 141.641C69.0269 146.179 68.9256 150.719 69.0529 155.253C69.2053 160.694 72.7032 164.618 78.2035 164.477C81.7225 164.386 85.2237 162.801 88.6836 161.727C89.7617 161.393 90.6794 160.541 91.67 159.926C89.037 163.463 85.3105 165.593 81.2078 165.532C77.2964 165.475 73.4085 163.923 69.065 162.925C69.5692 165.958 70.1618 169.414 70.7147 172.876C71.5051 177.823 72.7178 182.755 72.9432 187.729C73.3461 196.644 73.1094 205.586 73.2383 214.515C73.2601 216.031 73.7749 217.541 74.0611 219.053C74.3886 219.074 74.7161 219.095 75.0436 219.116C75.8988 214.095 76.7532 209.072 77.6085 204.05C77.8306 204.089 78.0519 204.129 78.2732 204.168C78.0559 206.889 77.8379 209.609 77.546 213.258C80.9856 212.311 83.6916 211.567 86.3538 210.834C86.2468 211.677 86.0392 213.31 85.7466 215.602C84.131 211.905 81.7071 213.608 79.7851 213.692C78.8066 213.735 77.2956 214.443 76.9948 215.222C72.7624 226.189 70.0329 237.452 70.8655 249.342C71.1987 254.105 71.6696 258.877 71.6575 263.644C71.651 266.46 70.8209 269.274 70.3612 272.09L71.0025 272.393C73.0939 269.876 75.1846 267.358 76.9518 265.23C74.5353 271.063 80.7489 275.059 81.6917 280.771C80.4684 279.181 79.5078 277.445 78.565 275.699C77.9254 274.514 77.4261 273.235 76.656 272.145C75.3241 270.258 74.2151 270.161 72.2906 272.013C69.493 274.706 70.4318 277.342 71.1695 280.274C71.9955 283.559 72.7746 286.871 73.2909 290.213C73.8714 293.968 73.963 297.801 74.6488 301.53C74.8377 302.561 76.4152 304.142 77.3037 304.108C82.5761 303.907 86.6229 299.107 85.8876 293.802C85.3015 289.569 84.2639 285.377 83.1476 281.241C81.0489 273.466 80.6995 265.767 83.3876 258.06C84.5598 254.7 85.5504 251.274 86.794 247.941C90.4443 238.159 90.7345 228.136 89.9831 217.822C89.4991 211.175 89.3888 204.122 91.0677 197.766C97.0471 175.116 95.8343 152.512 92.244 129.802C92.0705 128.709 91.0215 127.329 90.0171 126.864C85.5026 124.779 80.1353 126.302 77.1002 130.264C76.4314 131.137 75.8137 132.049 75.1725 132.943C77.0256 126.517 80.3485 124.93 90.6924 125.298C88.7655 109.465 94.1068 94.7531 97.3292 78.8785C97.7694 79.9634 97.9477 80.1865 97.9258 80.3878C97.8431 81.1178 97.7937 81.8761 97.5545 82.5616C94.7132 90.7191 94.7683 98.8096 97.9785 106.865C98.2898 107.648 98.3684 108.539 98.4649 109.391C99.7668 120.898 103.261 131.751 109.161 141.67C112.465 147.225 114.778 152.712 114.104 159.305C113.871 161.577 114.232 164.012 114.819 166.243C115.648 169.393 116.94 172.423 118.032 175.504C118.477 175.354 118.922 175.205 119.367 175.055C119.005 172.484 118.644 169.912 118.281 167.34C120.549 170.677 119.496 175.532 124.464 177.616C123.85 174.207 123.236 170.799 122.621 167.391C124.781 170.968 124.107 175.776 128.038 178.301C128.455 178.172 128.872 178.042 129.29 177.913C128.278 174.068 127.267 170.224 126.254 166.378C128.444 169.39 128.367 173.457 131.455 175.76C131.847 175.604 132.237 175.449 132.628 175.293C130.847 169.043 129.066 162.793 127.054 155.731C129.517 158.653 131.568 161.085 133.618 163.517ZM136.371 164.643C133.912 163.95 132.177 163.462 129.9 162.82C130.914 165.787 131.919 168.511 132.773 171.28C134.341 176.358 131.261 178.611 126.209 178.86C122.863 179.025 121.227 176.91 118.653 176.346C117.47 176.088 116.068 174.215 115.797 172.868C114.667 167.258 114.01 161.555 113.015 155.915C112.495 152.967 112.273 149.708 110.82 147.227C103.582 134.867 98.7405 121.772 96.9928 107.527C96.6239 104.523 95.5247 101.608 93.9844 98.5865C93.4761 100.717 92.8884 102.832 92.4717 104.981C90.514 115.069 92.5001 124.841 94.0736 134.83C97.1216 154.187 98.0831 173.806 93.1324 193.01C90.6494 202.64 90.1444 212.026 91.2655 221.774C92.3331 231.058 91.1544 240.258 87.5089 248.876C82.213 261.395 80.9443 273.923 85.7182 286.854C86.3481 288.56 86.5313 290.441 86.8418 292.253C87.9905 298.948 84.709 303.649 77.9903 305.236C75.1579 305.905 73.9832 304.317 73.5998 302.096C73.0372 298.838 72.978 295.497 72.4933 292.222C71.8066 287.586 70.9279 282.978 70.131 278.358C69.5782 278.406 69.0253 278.453 68.4724 278.499C68.4724 283.031 68.5259 287.563 68.4554 292.093C68.3922 296.115 68.4895 300.175 67.952 304.143C67.545 307.153 65.529 307.991 62.4939 306.647C54.6273 303.165 51.5517 298.579 53.9893 290.322C58.1172 276.34 56.2494 263.174 50.7038 250.144C50.416 249.468 50.2255 248.751 49.9718 248.06C46.8759 239.621 45.8593 230.916 46.4989 221.976C47.2147 211.957 46.0377 202.188 43.1234 192.531C39.0701 179.098 39.5111 165.323 41.1576 151.6C42.2819 142.23 44.3807 132.966 45.3048 123.583C46.1633 114.862 44.2048 106.342 41.6926 98.0238L40.749 97.9664C39.7681 102.538 38.3316 107.066 37.8939 111.688C36.6293 125.045 31.4946 137.048 25.8403 148.964C24.6268 151.522 24.3568 154.554 23.8258 157.399C22.7752 163.029 22.16 168.762 20.7486 174.295C19.9039 177.606 14.9703 179.216 11.5323 179.778C8.77854 180.229 7.2537 179.599 5.02279 178.274C2.71163 176.9 2.92969 175.484 3.41203 173.75C4.31591 170.502 5.44676 167.317 6.52817 163.968C4.30294 164.541 2.56085 164.991 0 165.65C2.1085 157.809 4.0265 151.254 11.6053 148.269C13.0045 147.718 14.5512 146.198 14.9833 144.803C16.2438 140.731 17.3885 136.538 17.823 132.316C18.6166 124.607 19.2319 116.976 22.6682 109.786C23.6994 107.627 23.2041 104.743 23.4165 102.193C24.0747 94.2793 24.9178 86.4613 24.6235 78.404C24.0723 63.295 29.5539 58.2676 39.9164 53.9904C44.6782 52.0251 49.29 49.6201 53.7364 47.0187C55.1778 46.1764 56.4464 44.199 56.8128 42.5264C57.9948 37.1344 57.5011 32.2412 53.8134 27.3536C49.5778 21.7393 49.7342 14.8153 52.0657 8.29398C54.072 2.68127 60.7761 -0.604874 67.6042 0.0927741C74.1283 0.758086 79.9286 5.50824 80.3736 12.3837C80.7254 17.8258 79.7008 23.6188 78.0081 28.8451C76.7549 32.7157 75.637 36.3867 76.5595 40.246C77.0548 42.3171 78.3437 44.7309 80.0331 45.8926C86.2784 50.1876 92.7668 54.1496 99.3031 58C105.753 61.7987 108.493 67.6216 109.281 74.6983C110.066 81.7395 111.462 88.7758 111.499 95.8201C111.541 103.742 113.828 110.696 116.839 117.893C119.496 124.243 120.273 131.379 121.828 138.18C122.871 142.744 124.207 146.579 128.903 149.37C133.802 152.28 134.947 158.227 136.371 164.643Z" fill="white"/>
<path fill-rule="evenodd" clip-rule="evenodd" d="M58.6206 58.2285C61.4336 64.9601 63.2373 71.9875 61.3582 79.4045C60.5338 82.6616 58.4496 84.3374 55.1032 83.3818C51.7585 82.4271 48.541 81.0318 45.2676 79.8305C45.4021 79.487 45.5359 79.1442 45.6705 78.8006C47.5269 79.6018 49.367 80.4457 51.2437 81.1976C58.3239 84.035 60.7826 82.5807 60.9058 74.8476C60.9707 70.7264 60.1138 66.5833 59.5845 62.4621C59.4005 61.0337 58.9497 59.6384 58.6206 58.2285Z" fill="white"/>
<path fill-rule="evenodd" clip-rule="evenodd" d="M67.3945 125.586V83.7402C67.6102 83.7386 67.8258 83.737 68.0422 83.7354V125.616C67.8258 125.606 67.6102 125.596 67.3945 125.586Z" fill="white"/>
<path fill-rule="evenodd" clip-rule="evenodd" d="M74.8706 58.1797C74.5707 61.9412 74.2667 65.7018 73.9765 69.4641C73.9392 69.9524 73.9449 70.4471 73.9781 70.9362C74.244 74.827 73.7114 79.7316 77.4777 81.4891C79.5781 82.4688 83.3508 79.8828 86.7304 79.2207C83.9734 80.5546 81.3129 82.4446 78.4099 82.949C77.2483 83.1511 74.4572 80.4139 74.2951 78.8238C73.6782 72.7899 73.8111 66.6784 73.7268 60.5952C73.7163 59.7933 74.0705 58.9865 74.2553 58.1813C74.4604 58.1805 74.6655 58.1797 74.8706 58.1797Z" fill="white"/>
<path fill-rule="evenodd" clip-rule="evenodd" d="M58.4609 281.866C60.6927 275.734 63.5907 269.707 61.5917 262.861C64.0447 265.19 61.0583 270.487 67.1073 270.953C63.2049 269.997 62.6585 272.067 62.0464 274.518C61.3971 277.12 60.2857 279.607 59.377 282.142C59.0714 282.051 58.7666 281.958 58.4609 281.866Z" fill="white"/>
<path fill-rule="evenodd" clip-rule="evenodd" d="M35.3275 109.094C36.0555 113.126 35.7377 117.243 32.44 120.778C33.1955 118.455 33.9502 116.132 34.7827 113.568C33.5003 113.153 32.5389 112.842 31.9844 112.664C33.0293 111.548 34.1926 110.306 35.3275 109.094Z" fill="white"/>
<path fill-rule="evenodd" clip-rule="evenodd" d="M104.923 115.157C104.349 115.272 103.552 115.43 102.148 115.709C103.163 118.269 104.074 120.571 104.873 122.587C102.075 121.169 100.733 117.108 101.501 112.224C102.504 113.085 103.715 114.121 104.923 115.157Z" fill="white"/>
</g>
</svg>
