<svg width="16" height="18" viewBox="0 0 16 18" fill="none" xmlns="http://www.w3.org/2000/svg">
<path d="M6.12414 0.25C5.09631 0.25 4.24914 1.09717 4.24914 2.125V9.50781L3.83898 9.07812L3.68273 8.94141C2.96252 8.22119 1.78576 8.22119 1.06555 8.94141C0.345337 9.66162 0.345337 10.8384 1.06555 11.5586V11.5781L6.18273 16.6367L6.22179 16.6562L6.24132 16.6953C7.08361 17.3276 8.15782 17.75 9.36632 17.75H10.4405C13.275 17.75 15.5577 15.4673 15.5577 12.6328V7.75C15.5577 6.72217 14.7105 5.875 13.6827 5.875C13.4166 5.875 13.17 5.94824 12.9405 6.05078C12.7355 5.23779 11.9957 4.625 11.1241 4.625C10.6456 4.625 10.2062 4.81299 9.87413 5.11328C9.5421 4.81299 9.10265 4.625 8.62413 4.625C8.40441 4.625 8.19689 4.67139 7.99913 4.74219V2.125C7.99913 1.09717 7.15197 0.25 6.12414 0.25Z" fill="white"/>
</svg>
