<svg width="34" height="33" viewBox="0 0 34 33" fill="none" xmlns="http://www.w3.org/2000/svg">
<path d="M17 1.125V2.83333M17 30.1667V31.875M32.75 16.5H31M3 16.5H1.25M28.137 27.3718L26.8997 26.164M7.10025 6.83596L5.863 5.62817M28.137 5.62817L26.8997 6.83596M7.10025 26.164L5.863 27.3718M24 16.5C24 18.3123 23.2625 20.0504 21.9497 21.3319C20.637 22.6134 18.8565 23.3333 17 23.3333C15.1435 23.3333 13.363 22.6134 12.0503 21.3319C10.7375 20.0504 10 18.3123 10 16.5C10 14.6877 10.7375 12.9496 12.0503 11.6681C13.363 10.3866 15.1435 9.66667 17 9.66667C18.8565 9.66667 20.637 10.3866 21.9497 11.6681C23.2625 12.9496 24 14.6877 24 16.5Z" stroke="#18181B" stroke-width="2" stroke-linecap="round" stroke-linejoin="round"/>
</svg>
