<svg width="50" height="53" viewBox="0 0 50 53" fill="none" xmlns="http://www.w3.org/2000/svg">
<path fill-rule="evenodd" clip-rule="evenodd" d="M9.25 3.22021V0.970215H13.75V3.22021H36.25V0.970215H40.75V3.22021H49.75V52.7202H0.25V3.22021H9.25ZM9.25 7.72021H4.75V12.2202H45.25V7.72021H40.75V9.97021H36.25V7.72021H13.75V9.97021H9.25V7.72021ZM4.75 16.7202H45.25V48.2202H4.75V16.7202ZM15.5078 26.2124L18.7422 22.978L25 29.2358L31.2578 22.978L34.4922 26.2124L28.2344 32.4702L34.4922 38.728L31.2578 41.9624L25 35.7046L18.7422 41.9624L15.5078 38.728L21.7656 32.4702L15.5078 26.2124Z" fill="#EF4444"/>
</svg>
