<svg width="58" height="59" viewBox="0 0 58 59" fill="none" xmlns="http://www.w3.org/2000/svg">
<path d="M17 14.7202V2.72021M41 14.7202V2.72021M14 26.7202H44M8 56.7202H50C51.5913 56.7202 53.1174 56.0881 54.2426 54.9629C55.3679 53.8376 56 52.3115 56 50.7202V14.7202C56 13.1289 55.3679 11.6028 54.2426 10.4776C53.1174 9.35236 51.5913 8.72021 50 8.72021H8C6.4087 8.72021 4.88258 9.35236 3.75736 10.4776C2.63214 11.6028 2 13.1289 2 14.7202V50.7202C2 52.3115 2.63214 53.8376 3.75736 54.9629C4.88258 56.0881 6.4087 56.7202 8 56.7202Z" stroke="#3CBDEE" stroke-width="4" stroke-linecap="round" stroke-linejoin="round"/>
</svg>
