<svg width="56" height="56" viewBox="0 0 56 56" fill="none" xmlns="http://www.w3.org/2000/svg">
<g clipPath="url(#clip0)">
<path d="M0 28C0 12.536 12.536 0 28 0C43.464 0 56 12.536 56 28C56 43.464 43.464 56 28 56C12.536 56 0 43.464 0 28Z" fill="#F4F4F5"/>
<path d="M56 48.9861V56.0024H0V49.0117C3.25721 44.6588 7.48512 41.1259 12.3475 38.6939C17.2099 36.2619 22.5727 34.9979 28.0093 35.0024C39.452 35.0024 49.616 40.4951 56 48.9861ZM37.338 21.0001C37.338 23.4754 36.3547 25.8494 34.6043 27.5997C32.854 29.3501 30.48 30.3334 28.0047 30.3334C25.5293 30.3334 23.1553 29.3501 21.405 27.5997C19.6547 25.8494 18.6713 23.4754 18.6713 21.0001C18.6713 18.5247 19.6547 16.1508 21.405 14.4004C23.1553 12.6501 25.5293 11.6667 28.0047 11.6667C30.48 11.6667 32.854 12.6501 34.6043 14.4004C36.3547 16.1508 37.338 18.5247 37.338 21.0001Z" fill="#D4D4D8"/>
</g>
<defs>
<clipPath id="clip0">
<path d="M0 28C0 12.536 12.536 0 28 0C43.464 0 56 12.536 56 28C56 43.464 43.464 56 28 56C12.536 56 0 43.464 0 28Z" fill="white"/>
</clipPath>
</defs>
</svg>
