<svg width="17" height="16" viewBox="0 0 17 16" fill="none" xmlns="http://www.w3.org/2000/svg">
<path fill-rule="evenodd" clip-rule="evenodd" d="M4.5 0C4.23478 0 3.98043 0.105357 3.79289 0.292893C3.60536 0.48043 3.5 0.734784 3.5 1V2H2.5C1.96957 2 1.46086 2.21071 1.08579 2.58579C0.710714 2.96086 0.5 3.46957 0.5 4V14C0.5 14.5304 0.710714 15.0391 1.08579 15.4142C1.46086 15.7893 1.96957 16 2.5 16H14.5C15.0304 16 15.5391 15.7893 15.9142 15.4142C16.2893 15.0391 16.5 14.5304 16.5 14V4C16.5 3.46957 16.2893 2.96086 15.9142 2.58579C15.5391 2.21071 15.0304 2 14.5 2H13.5V1C13.5 0.734784 13.3946 0.48043 13.2071 0.292893C13.0196 0.105357 12.7652 0 12.5 0C12.2348 0 11.9804 0.105357 11.7929 0.292893C11.6054 0.48043 11.5 0.734784 11.5 1V2H5.5V1C5.5 0.734784 5.39464 0.48043 5.20711 0.292893C5.01957 0.105357 4.76522 0 4.5 0ZM4.5 5C4.23478 5 3.98043 5.10536 3.79289 5.29289C3.60536 5.48043 3.5 5.73478 3.5 6C3.5 6.26522 3.60536 6.51957 3.79289 6.70711C3.98043 6.89464 4.23478 7 4.5 7H12.5C12.7652 7 13.0196 6.89464 13.2071 6.70711C13.3946 6.51957 13.5 6.26522 13.5 6C13.5 5.73478 13.3946 5.48043 13.2071 5.29289C13.0196 5.10536 12.7652 5 12.5 5H4.5Z" fill="#9CA3AF"/>
</svg>
