<svg width="20" height="12" viewBox="0 0 20 12" fill="none" xmlns="http://www.w3.org/2000/svg">
<path fill-rule="evenodd" clip-rule="evenodd" d="M7.24853 11.6493C7.0235 11.8742 6.71833 12.0006 6.40013 12.0006C6.08194 12.0006 5.77677 11.8742 5.55173 11.6493L0.751734 6.84928C0.526769 6.62425 0.400391 6.31908 0.400391 6.00088C0.400391 5.68268 0.526769 5.37751 0.751734 5.15248L5.55173 0.35248C5.77806 0.13389 6.08118 0.0129363 6.39582 0.0156704C6.71045 0.0184045 7.01143 0.144608 7.23392 0.367097C7.45641 0.589587 7.58261 0.890562 7.58534 1.2052C7.58808 1.51983 7.46712 1.82296 7.24853 2.04928L4.49693 4.80088H18.4001C18.7184 4.80088 19.0236 4.92731 19.2487 5.15235C19.4737 5.3774 19.6001 5.68262 19.6001 6.00088C19.6001 6.31914 19.4737 6.62436 19.2487 6.84941C19.0236 7.07445 18.7184 7.20088 18.4001 7.20088H4.49693L7.24853 9.95248C7.4735 10.1775 7.59988 10.4827 7.59988 10.8009C7.59988 11.1191 7.4735 11.4242 7.24853 11.6493Z" fill="#3CBDEE"/>
</svg>
