<svg width="21" height="16" viewBox="0 0 21 16" fill="none" xmlns="http://www.w3.org/2000/svg">
<path d="M19.6667 6V7C20.219 7 20.6667 6.55228 20.6667 6H19.6667ZM19.6667 10H20.6667C20.6667 9.44771 20.219 9 19.6667 9V10ZM1.66675 10V9C1.11446 9 0.666748 9.44771 0.666748 10H1.66675ZM1.66675 6H0.666748C0.666748 6.55228 1.11446 7 1.66675 7L1.66675 6ZM3.66675 0C2.00989 0 0.666748 1.34315 0.666748 3H2.66675C2.66675 2.44772 3.11446 2 3.66675 2V0ZM17.6667 0H3.66675V2H17.6667V0ZM20.6667 3C20.6667 1.34315 19.3236 0 17.6667 0V2C18.219 2 18.6667 2.44772 18.6667 3H20.6667ZM20.6667 6V3H18.6667V6H20.6667ZM18.6667 8C18.6667 7.44771 19.1145 7 19.6667 7V5C18.0099 5 16.6667 6.34315 16.6667 8H18.6667ZM19.6667 9C19.1145 9 18.6667 8.55229 18.6667 8H16.6667C16.6667 9.65685 18.0099 11 19.6667 11V9ZM20.6667 13V10H18.6667V13H20.6667ZM17.6667 16C19.3236 16 20.6667 14.6569 20.6667 13H18.6667C18.6667 13.5523 18.219 14 17.6667 14V16ZM3.66675 16H17.6667V14H3.66675V16ZM0.666748 13C0.666748 14.6569 2.00989 16 3.66675 16V14C3.11446 14 2.66675 13.5523 2.66675 13H0.666748ZM0.666748 10V13H2.66675V10H0.666748ZM2.66675 8C2.66675 8.55228 2.21903 9 1.66675 9V11C3.3236 11 4.66675 9.65685 4.66675 8H2.66675ZM1.66675 7C2.21903 7 2.66675 7.44772 2.66675 8H4.66675C4.66675 6.34315 3.3236 5 1.66675 5V7ZM0.666748 3V6H2.66675V3H0.666748Z" fill="white"/>
</svg>
