<svg width="20" height="20" viewBox="0 0 20 20" fill="none" xmlns="http://www.w3.org/2000/svg">
<path d="M5 19C3.93913 19 2.92172 18.5786 2.17157 17.8284C1.42143 17.0783 1 16.0609 1 15V3C1 2.46957 1.21071 1.96086 1.58579 1.58579C1.96086 1.21071 2.46957 1 3 1H7C7.53043 1 8.03914 1.21071 8.41421 1.58579C8.78929 1.96086 9 2.46957 9 3V15C9 16.0609 8.57857 17.0783 7.82843 17.8284M5 19C6.06087 19 7.07828 18.5786 7.82843 17.8284M5 19H17C17.5304 19 18.0391 18.7893 18.4142 18.4142C18.7893 18.0391 19 17.5304 19 17V13C19 12.4696 18.7893 11.9609 18.4142 11.5858C18.0391 11.2107 17.5304 11 17 11H14.657M7.82843 17.8284L16.314 9.343C16.6889 8.96795 16.8996 8.45933 16.8996 7.929C16.8996 7.39867 16.6889 6.89006 16.314 6.515L13.485 3.686C13.1099 3.31106 12.6013 3.10043 12.071 3.10043C11.5407 3.10043 11.0321 3.31106 10.657 3.686L9 5.343M5 15H5.01" stroke="#9CA3AF" stroke-width="1.5" stroke-linecap="round" stroke-linejoin="round"/>
</svg>
