<svg width="72" height="23" viewBox="0 0 72 23" fill="none" xmlns="http://www.w3.org/2000/svg">
<path d="M28.8004 0.366699L25.1895 21.7294H30.9646L34.5784 0.366699H28.8004Z" fill="white"/>
<path d="M20.3454 0.390723L14.6892 14.9594L14.0861 12.7597C12.9706 10.1092 9.80381 6.30267 6.08594 3.90375L11.258 21.7189L17.3688 21.7085L26.4637 0.38623L20.3454 0.390723Z" fill="white"/>
<path d="M11.8939 1.92012C11.5582 0.618832 10.5853 0.230991 9.37766 0.18457H0.423878L0.349609 0.609847C7.31746 2.31395 11.928 6.41997 13.8412 11.3571L11.8939 1.92012Z" fill="white"/>
<path d="M46.2828 4.46265C48.1722 4.43271 49.5417 4.849 50.6052 5.28026L51.1266 5.52734L51.9079 0.897219C50.7642 0.464455 48.9713 0.000244141 46.7344 0.000244141C41.0276 0.000244141 37.0052 2.89782 36.974 7.05025C36.9369 10.1185 39.8393 11.8316 42.0317 12.8544C44.282 13.9026 45.0366 14.569 45.0262 15.5049C45.0084 16.9349 43.2319 17.5908 41.5727 17.5908C39.26 17.5908 38.0316 17.2689 36.1348 16.4722L35.3906 16.1308L34.5781 20.9122C35.9298 21.5097 38.4237 22.0233 41.0127 22.0502C47.0834 22.0502 51.0285 19.1871 51.0701 14.7502C51.0954 12.3228 49.5551 10.4704 46.2174 8.95052C44.1974 7.95921 42.9615 7.30033 42.9734 6.30003C42.9734 5.41204 44.0221 4.46265 46.2828 4.46265Z" fill="white"/>
<path fill-rule="evenodd" clip-rule="evenodd" d="M62.2628 0.391113H66.7249L71.3978 21.7418H66.0401C66.0401 21.7418 65.5083 19.2875 65.336 18.5417C64.8919 18.5417 63.0323 18.5392 61.2815 18.5369C59.7242 18.5348 58.253 18.5328 57.9404 18.5328C57.7161 19.1093 56.7269 21.7418 56.7269 21.7418H50.6621L59.2371 2.1641C59.8461 0.771466 60.877 0.391113 62.2628 0.391113ZM61.9054 8.1898C61.9054 8.1898 60.0799 12.9337 59.6045 14.1601H64.4023L63.064 7.99214L62.6748 6.15027C62.5287 6.54363 62.334 7.05415 62.1768 7.46626C62.0126 7.89661 61.8894 8.21963 61.9054 8.1898Z" fill="white"/>
</svg>
